<svg width="1440" height="600" viewBox="0 0 1440 600" fill="none" xmlns="http://www.w3.org/2000/svg">
<path d="M0 0H1440V600H0V0Z" fill="#4C6BE2"/>
<mask id="mask0" mask-type="alpha" maskUnits="userSpaceOnUse" x="0" y="0" width="1440" height="600">
<path d="M0 0H1440V600H0V0Z" fill="#4C6BE2"/>
</mask>
<g mask="url(#mask0)">
<g opacity="0.3">
<path d="M1208.34 377.484L1122.06 519.404L1208.34 590.719V377.484Z" fill="#8BA3FF"/>
<path d="M1122.06 519.404L1208.34 510.716V590.718L1122.06 519.404Z" fill="#577AFF"/>
<path d="M1208.34 377.484L1294.62 519.404L1208.34 590.718V377.484Z" fill="#D4DDFF"/>
<path d="M1294.62 519.404L1208.34 510.716V590.718L1294.62 519.404Z" fill="#8BA3FF"/>
<path d="M1122.06 535.174L1208.34 610.23V685.287L1122.06 535.174Z" fill="#8BA3FF"/>
<path d="M1294.62 535.174L1208.34 610.23V685.287L1294.62 535.174Z" fill="#577AFF"/>
<path d="M1145.59 292.273V317.829H1152.69C1152.69 317.828 1152.69 317.827 1152.69 317.827C1152.69 317.007 1153.36 316.336 1154.18 316.336H1169.3C1170.12 316.336 1170.79 317.007 1170.79 317.827C1170.79 317.827 1170.79 317.828 1170.79 317.829H1199.27V292.273H1181.79H1145.59ZM1162.66 299.059C1159.44 299.059 1156.22 299.059 1153 299.059C1151.41 299.059 1151.41 296.592 1153 296.592C1156.22 296.592 1159.44 296.592 1162.66 296.592C1164.26 296.592 1164.25 299.059 1162.66 299.059ZM1168.83 299.059C1167.24 299.059 1167.25 296.592 1168.83 296.592C1170.43 296.592 1170.42 299.059 1168.83 299.059Z" fill="#577AFF"/>
<path d="M1197.58 286H1183.49C1182.55 286 1181.79 286.759 1181.79 287.697V292.273H1199.27V287.697C1199.27 286.759 1198.51 286 1197.58 286Z" fill="#8BA3FF"/>
<path d="M1169.3 319.318H1154.18C1153.36 319.318 1152.69 318.648 1152.69 317.829H1145.59V325.177C1145.59 327.454 1147.43 329.292 1149.71 329.292H1195.16C1197.43 329.292 1199.27 327.453 1199.27 325.177V317.829H1170.79C1170.79 318.648 1170.12 319.318 1169.3 319.318Z" fill="#8BA3FF"/>
<path d="M1154.18 319.318H1169.3C1170.12 319.318 1170.79 318.648 1170.79 317.829C1170.79 317.828 1170.79 317.827 1170.79 317.827C1170.79 317.007 1170.12 316.336 1169.3 316.336H1154.18C1153.36 316.336 1152.69 317.007 1152.69 317.827C1152.69 317.827 1152.69 317.828 1152.69 317.829C1152.69 318.648 1153.36 319.318 1154.18 319.318Z" fill="#4C6BE2"/>
<path d="M1162.66 296.592C1159.44 296.592 1156.22 296.592 1153 296.592C1151.41 296.592 1151.41 299.059 1153 299.059C1156.22 299.059 1159.44 299.059 1162.66 299.059C1164.25 299.059 1164.26 296.592 1162.66 296.592Z" fill="#D4DDFF"/>
<path d="M1168.84 296.592C1167.25 296.592 1167.24 299.059 1168.84 299.059C1170.42 299.059 1170.43 296.592 1168.84 296.592Z" fill="#D4DDFF"/>
<path d="M1404.67 470.982C1404.67 474.337 1401.96 477.05 1398.61 477.05H1395.57L1401.79 484.812C1402.75 486.007 1404.68 485.329 1404.68 483.799V470.982H1404.67Z" fill="#8BA3FF"/>
<path d="M1376.5 453.904C1376.5 454.657 1376.89 455.305 1377.93 455.928V452.555C1377.1 452.659 1376.5 453.256 1376.5 453.904Z" fill="#8BA3FF"/>
<path d="M1380.86 463.141C1380.86 462.337 1380.39 461.584 1379.48 460.962V464.75C1380.29 464.542 1380.86 463.945 1380.86 463.141Z" fill="#8BA3FF"/>
<path d="M1373 465.995C1372.74 465.735 1372.64 465.632 1372.87 465.268L1373.98 463.297C1374.22 462.882 1374.61 462.7 1374.97 462.959C1375.05 463.011 1376.63 464.075 1377.98 464.516L1378.01 460.313C1375.75 459.405 1372.74 457.562 1372.74 454.475C1372.74 451.881 1374.58 449.675 1378.03 449.338V448.507C1378.03 448.222 1378.27 448.015 1378.53 448.015H1378.97C1379.23 448.015 1379.46 448.222 1379.46 448.507V449.364C1381.8 449.571 1383.59 450.739 1384.29 451.258C1384.6 451.44 1384.55 451.907 1384.44 452.088L1382.94 454.268C1382.73 454.553 1382.44 454.579 1382.24 454.423C1382.05 454.346 1380.68 453.385 1379.46 452.893V456.551C1381.48 457.355 1384.96 459.094 1384.96 462.622C1384.96 463.981 1384.41 465.257 1383.42 466.226H1404.68V448.167C1404.68 444.811 1401.96 442.097 1398.61 442.097H1359.09C1355.74 442.097 1353.02 444.812 1353.02 448.167V466.226H1373.25C1373.15 466.141 1373.07 466.063 1373 465.995ZM1366.91 448.505C1364.89 448.505 1362.86 448.505 1360.83 448.505C1359.33 448.505 1359.33 446.175 1360.83 446.175C1362.86 446.175 1364.89 446.175 1366.91 446.175C1368.42 446.175 1368.41 448.505 1366.91 448.505ZM1371.81 448.505C1370.31 448.505 1370.31 446.175 1371.81 446.175C1373.31 446.175 1373.31 448.505 1371.81 448.505Z" fill="#8BA3FF"/>
<path d="M1404.67 470.982C1404.67 470.981 1404.67 470.981 1404.67 470.98V466.227H1383.42C1382.46 467.164 1381.09 467.814 1379.41 467.968V470.666C1379.41 470.925 1379.17 471.133 1378.91 471.133H1378.47C1378.21 471.133 1377.98 470.925 1377.98 470.666V467.968C1375.48 467.786 1373.96 466.828 1373.25 466.227H1353.02V470.98C1353.02 474.336 1355.74 477.05 1359.09 477.05H1395.57H1398.61C1401.96 477.05 1404.67 474.337 1404.67 470.982ZM1388.62 473.81C1387.12 473.81 1387.12 471.479 1388.62 471.479C1390.12 471.479 1390.12 473.81 1388.62 473.81ZM1393.52 471.479C1395.55 471.479 1397.57 471.479 1399.6 471.479C1401.1 471.479 1401.1 473.81 1399.6 473.81C1397.57 473.81 1395.55 473.81 1393.52 473.81C1392.02 473.81 1392.02 471.479 1393.52 471.479Z" fill="#8BA3FF"/>
<path d="M1366.91 446.175C1364.88 446.175 1362.86 446.175 1360.83 446.175C1359.33 446.175 1359.33 448.505 1360.83 448.505C1362.86 448.505 1364.88 448.505 1366.91 448.505C1368.41 448.505 1368.41 446.175 1366.91 446.175Z" fill="#D4DDFF"/>
<path d="M1371.81 446.175C1370.31 446.175 1370.31 448.505 1371.81 448.505C1373.31 448.505 1373.31 446.175 1371.81 446.175Z" fill="#D4DDFF"/>
<path d="M1399.6 473.81C1401.1 473.81 1401.1 471.479 1399.6 471.479C1397.57 471.479 1395.55 471.479 1393.52 471.479C1392.02 471.479 1392.02 473.81 1393.52 473.81C1395.55 473.81 1397.57 473.81 1399.6 473.81Z" fill="#D4DDFF"/>
<path d="M1388.62 471.479C1387.12 471.479 1387.12 473.81 1388.62 473.81C1390.12 473.81 1390.12 471.479 1388.62 471.479Z" fill="#D4DDFF"/>
<path d="M1048.41 492.028C1044.72 488.814 1042.39 484.078 1042.39 478.803C1042.39 469.101 1050.25 461.237 1059.95 461.237C1064.27 461.237 1068.24 462.798 1071.3 465.4C1071.36 465.454 1071.42 465.513 1071.49 465.569L1075.21 461.23C1071.13 457.674 1065.79 455.527 1059.95 455.527C1047.1 455.527 1036.68 465.946 1036.68 478.803C1036.68 485.903 1039.86 492.265 1044.88 496.533L1048.61 492.194C1048.54 492.139 1048.47 492.085 1048.41 492.028Z" fill="#8BA3FF"/>
<path d="M1075.21 461.23L1071.49 465.569C1075.17 468.782 1077.51 473.521 1077.51 478.803C1077.51 480.652 1077.23 482.434 1076.69 484.109C1077.68 484.376 1077.59 486.045 1076.42 486.045C1076.25 486.045 1076.11 486.012 1075.99 485.954C1075.74 486.505 1075.47 487.04 1075.17 487.559C1075.8 487.651 1076.36 488.308 1075.92 489.006C1073.84 492.318 1070.74 494.691 1067 495.829C1066.47 495.991 1066.07 495.719 1065.89 495.329C1064.04 495.996 1062.04 496.361 1059.95 496.361C1055.62 496.361 1051.66 494.793 1048.61 492.194L1044.88 496.533C1048.94 499.984 1054.2 502.072 1059.95 502.072C1072.8 502.072 1083.22 491.652 1083.22 478.802C1083.22 471.788 1080.12 465.498 1075.21 461.23Z" fill="#3757CF"/>
<path d="M1057.63 473.199C1057.63 473.943 1058.02 474.584 1059.04 475.199V471.866C1058.22 471.969 1057.63 472.558 1057.63 473.199Z" fill="#8BA3FF"/>
<path d="M1054.17 485.145C1053.91 484.889 1053.81 484.786 1054.04 484.428L1055.14 482.479C1055.38 482.069 1055.76 481.89 1056.12 482.146C1056.14 482.163 1056.34 482.293 1056.62 482.468L1059.12 479.567V479.531C1056.89 478.634 1053.91 476.814 1053.91 473.763C1053.91 471.199 1055.73 469.02 1059.14 468.687V467.866C1059.14 467.584 1059.37 467.379 1059.63 467.379H1060.07C1060.32 467.379 1060.55 467.584 1060.55 467.866V468.712C1062.86 468.917 1064.63 470.071 1065.32 470.583C1065.63 470.763 1065.58 471.224 1065.48 471.404L1063.99 473.557C1063.78 473.839 1063.5 473.864 1063.3 473.711C1063.12 473.634 1061.76 472.685 1060.55 472.199V475.813C1060.94 475.968 1061.39 476.159 1061.85 476.39L1071.29 465.399C1068.24 462.797 1064.27 461.236 1059.95 461.236C1050.25 461.236 1042.39 469.1 1042.39 478.802C1042.39 484.078 1044.72 488.813 1048.41 492.028L1054.25 485.223C1054.23 485.199 1054.19 485.168 1054.17 485.145ZM1049.68 470.641C1048.97 471.612 1048.47 472.704 1048.32 473.906C1048.25 474.433 1047.92 474.9 1047.33 474.894C1046.84 474.889 1046.27 474.44 1046.34 473.906C1046.54 472.351 1047.04 470.916 1047.97 469.644C1048.72 468.628 1050.43 469.614 1049.68 470.641ZM1051.36 468.564C1050.09 468.564 1050.09 466.588 1051.36 466.588C1052.64 466.588 1052.63 468.564 1051.36 468.564Z" fill="#8BA3FF"/>
<path d="M1061.85 476.39C1063.76 477.345 1065.99 479.005 1065.99 481.813C1065.99 484.453 1063.89 486.786 1060.5 487.094V489.76C1060.5 490.016 1060.27 490.222 1060.02 490.222H1059.58C1059.32 490.222 1059.09 490.017 1059.09 489.76V487.094C1056.39 486.897 1054.86 485.791 1054.26 485.224L1048.41 492.028C1048.47 492.085 1048.54 492.139 1048.61 492.194C1051.66 494.794 1055.62 496.362 1059.95 496.362C1062.04 496.362 1064.04 495.996 1065.89 495.33C1065.66 494.828 1065.79 494.132 1066.48 493.924C1069.72 492.936 1072.41 490.883 1074.22 488.009C1074.45 487.628 1074.82 487.51 1075.17 487.56C1075.47 487.041 1075.74 486.506 1075.99 485.955C1075.17 485.568 1075.31 484.07 1076.42 484.07C1076.52 484.07 1076.61 484.086 1076.69 484.109C1077.23 482.435 1077.51 480.653 1077.51 478.803C1077.51 473.52 1075.17 468.783 1071.49 465.57C1071.42 465.514 1071.36 465.455 1071.3 465.4L1061.85 476.39Z" fill="#577AFF"/>
<path d="M1059.09 483.685L1059.12 479.567L1056.63 482.468C1057.21 482.826 1058.2 483.391 1059.09 483.685Z" fill="#577AFF"/>
<path d="M1060.58 480.172V483.915C1061.37 483.71 1061.94 483.12 1061.94 482.326C1061.94 481.531 1061.48 480.787 1060.58 480.172Z" fill="#577AFF"/>
<path d="M1047.97 469.644C1047.04 470.916 1046.54 472.351 1046.34 473.906C1046.27 474.44 1046.84 474.889 1047.33 474.894C1047.92 474.9 1048.25 474.433 1048.32 473.906C1048.47 472.703 1048.97 471.612 1049.68 470.641C1050.43 469.614 1048.72 468.627 1047.97 469.644Z" fill="#D4DDFF"/>
<path d="M1051.36 466.588C1050.09 466.588 1050.09 468.564 1051.36 468.564C1052.63 468.564 1052.64 466.588 1051.36 466.588Z" fill="#D4DDFF"/>
<path d="M1310.31 346.072C1306.62 342.858 1304.29 338.122 1304.29 332.846C1304.29 323.145 1312.15 315.28 1321.85 315.28C1326.17 315.28 1330.14 316.841 1333.2 319.443C1333.26 319.498 1333.32 319.557 1333.39 319.613L1337.11 315.274C1333.03 311.717 1327.69 309.57 1321.85 309.57C1309 309.57 1298.58 319.99 1298.58 332.846C1298.58 339.946 1301.76 346.309 1306.78 350.577L1310.51 346.238C1310.44 346.182 1310.37 346.128 1310.31 346.072Z" fill="#8BA3FF"/>
<path d="M1337.11 315.274L1333.39 319.613C1337.07 322.826 1339.41 327.564 1339.41 332.846C1339.41 334.696 1339.13 336.478 1338.59 338.152C1339.58 338.419 1339.49 340.089 1338.32 340.089C1338.15 340.089 1338.01 340.055 1337.89 339.998C1337.64 340.548 1337.37 341.084 1337.07 341.603C1337.7 341.694 1338.26 342.352 1337.82 343.049C1335.74 346.361 1332.64 348.735 1328.9 349.872C1328.37 350.034 1327.97 349.762 1327.79 349.373C1325.94 350.04 1323.94 350.405 1321.85 350.405C1317.52 350.405 1313.56 348.837 1310.51 346.237L1306.78 350.576C1310.84 354.027 1316.1 356.115 1321.85 356.115C1334.7 356.115 1345.12 345.696 1345.12 332.846C1345.12 325.832 1342.02 319.542 1337.11 315.274Z" fill="#3757CF"/>
<path d="M1319.53 327.243C1319.53 327.986 1319.92 328.627 1320.94 329.242V325.909C1320.12 326.012 1319.53 326.601 1319.53 327.243Z" fill="#8BA3FF"/>
<path d="M1316.07 339.189C1315.81 338.933 1315.71 338.83 1315.94 338.471L1317.04 336.523C1317.28 336.112 1317.66 335.933 1318.02 336.189C1318.04 336.207 1318.24 336.336 1318.52 336.512L1321.02 333.611V333.575C1318.79 332.678 1315.81 330.857 1315.81 327.806C1315.81 325.243 1317.63 323.063 1321.04 322.73V321.91C1321.04 321.628 1321.27 321.423 1321.53 321.423H1321.97C1322.22 321.423 1322.45 321.628 1322.45 321.91V322.755C1324.76 322.96 1326.53 324.114 1327.22 324.626C1327.53 324.806 1327.48 325.267 1327.38 325.447L1325.89 327.6C1325.68 327.882 1325.4 327.908 1325.2 327.754C1325.02 327.677 1323.66 326.729 1322.45 326.242V329.857C1322.84 330.011 1323.29 330.202 1323.75 330.433L1333.19 319.442C1330.14 316.841 1326.17 315.28 1321.85 315.28C1312.15 315.28 1304.29 323.144 1304.29 332.846C1304.29 338.121 1306.62 342.857 1310.31 346.071L1316.15 339.267C1316.13 339.242 1316.09 339.212 1316.07 339.189ZM1311.58 324.684C1310.87 325.655 1310.37 326.747 1310.22 327.95C1310.15 328.477 1309.82 328.944 1309.23 328.938C1308.74 328.933 1308.17 328.483 1308.24 327.95C1308.44 326.394 1308.94 324.959 1309.87 323.687C1310.62 322.671 1312.33 323.658 1311.58 324.684ZM1313.26 322.608C1311.99 322.608 1311.99 320.632 1313.26 320.632C1314.54 320.632 1314.53 322.608 1313.26 322.608Z" fill="#8BA3FF"/>
<path d="M1323.75 330.434C1325.66 331.389 1327.89 333.048 1327.89 335.856C1327.89 338.497 1325.79 340.83 1322.4 341.137V343.803C1322.4 344.059 1322.17 344.265 1321.92 344.265H1321.48C1321.22 344.265 1320.99 344.06 1320.99 343.803V341.137C1318.29 340.941 1316.76 339.834 1316.16 339.267L1310.31 346.072C1310.37 346.128 1310.44 346.182 1310.51 346.238C1313.56 348.837 1317.52 350.405 1321.85 350.405C1323.94 350.405 1325.94 350.04 1327.79 349.373C1327.56 348.872 1327.69 348.175 1328.38 347.967C1331.62 346.98 1334.31 344.927 1336.11 342.053C1336.35 341.671 1336.72 341.553 1337.07 341.603C1337.37 341.084 1337.64 340.549 1337.89 339.998C1337.07 339.612 1337.21 338.113 1338.32 338.113C1338.42 338.113 1338.51 338.13 1338.59 338.153C1339.13 336.479 1339.41 334.696 1339.41 332.847C1339.41 327.564 1337.07 322.826 1333.39 319.614C1333.32 319.558 1333.26 319.499 1333.2 319.444L1323.75 330.434Z" fill="#577AFF"/>
<path d="M1320.99 337.727L1321.02 333.61L1318.53 336.511C1319.11 336.87 1320.1 337.435 1320.99 337.727Z" fill="#577AFF"/>
<path d="M1322.48 334.216V337.959C1323.27 337.754 1323.84 337.164 1323.84 336.369C1323.84 335.575 1323.38 334.831 1322.48 334.216Z" fill="#577AFF"/>
<path d="M1322.45 326.242C1323.66 326.729 1325.02 327.678 1325.2 327.754C1325.4 327.908 1325.68 327.883 1325.89 327.6L1327.38 325.447C1327.48 325.267 1327.53 324.806 1327.22 324.626C1326.53 324.113 1324.76 322.96 1322.45 322.755V321.91C1322.45 321.628 1322.22 321.423 1321.97 321.423H1321.53C1321.28 321.423 1321.04 321.628 1321.04 321.91V322.73C1317.63 323.063 1315.81 325.243 1315.81 327.806C1315.81 330.857 1318.79 332.677 1321.02 333.575V333.611L1320.99 337.728C1320.1 337.435 1319.11 336.87 1318.53 336.512C1318.24 336.336 1318.04 336.207 1318.02 336.189C1317.66 335.933 1317.28 336.112 1317.05 336.523L1315.94 338.471C1315.71 338.83 1315.81 338.933 1316.07 339.189C1316.09 339.212 1316.13 339.242 1316.16 339.267C1316.76 339.834 1318.29 340.941 1320.99 341.137V343.803C1320.99 344.059 1321.22 344.265 1321.48 344.265H1321.92C1322.17 344.265 1322.4 344.06 1322.4 343.803V341.137C1325.79 340.83 1327.89 338.497 1327.89 335.856C1327.89 333.048 1325.66 331.389 1323.75 330.434C1323.29 330.203 1322.84 330.012 1322.46 329.857V326.242H1322.45ZM1320.94 329.241C1319.92 328.626 1319.53 327.985 1319.53 327.242C1319.53 326.601 1320.12 326.011 1320.94 325.909V329.241ZM1322.48 337.959V334.215C1323.38 334.831 1323.84 335.574 1323.84 336.369C1323.84 337.164 1323.27 337.753 1322.48 337.959Z" fill="#4C6BE2"/>
<path d="M1309.87 323.687C1308.94 324.958 1308.44 326.394 1308.24 327.949C1308.17 328.483 1308.74 328.932 1309.23 328.937C1309.82 328.943 1310.15 328.476 1310.22 327.949C1310.37 326.746 1310.87 325.655 1311.58 324.684C1312.33 323.658 1310.62 322.671 1309.87 323.687Z" fill="#D4DDFF"/>
<path d="M1313.26 320.632C1311.99 320.632 1311.99 322.608 1313.26 322.608C1314.53 322.608 1314.54 320.632 1313.26 320.632Z" fill="#D4DDFF"/>
<path d="M1336.11 342.052C1334.31 344.927 1331.62 346.98 1328.38 347.967C1327.69 348.175 1327.56 348.871 1327.79 349.373C1327.97 349.762 1328.37 350.034 1328.9 349.872C1332.64 348.735 1335.74 346.361 1337.82 343.049C1338.26 342.352 1337.7 341.694 1337.07 341.603C1336.72 341.553 1336.35 341.671 1336.11 342.052Z" fill="#D4DDFF"/>
<path d="M1337.89 339.998C1338.01 340.055 1338.15 340.089 1338.32 340.089C1339.49 340.089 1339.58 338.418 1338.59 338.152C1338.51 338.129 1338.42 338.113 1338.32 338.113C1337.21 338.113 1337.07 339.611 1337.89 339.998Z" fill="#D4DDFF"/>
<path d="M1074.86 331.47V328.64C1074.86 327.258 1073.74 326.137 1072.36 326.137H1059.4V331.47H1074.86V331.47Z" fill="#8BA3FF"/>
<path d="M1053.09 326.137H1040.14C1038.76 326.137 1037.64 327.258 1037.64 328.64V331.47H1053.09V326.137Z" fill="#8BA3FF"/>
<path d="M1053.09 331.47H1037.64V334.723H1053.09V331.47Z" fill="#577AFF"/>
<path d="M1074.86 331.47H1059.4V334.723H1074.86V331.47Z" fill="#577AFF"/>
<path d="M1045.85 350.755C1045.46 350.68 1045.11 350.859 1045.01 351.151C1044.9 351.489 1044.98 351.838 1045.35 352.271L1045.85 350.755Z" fill="#8BA3FF"/>
<path d="M1036.15 362.312C1036.34 363.234 1036.95 363.87 1037.63 363.87H1074.87C1075.55 363.87 1076.16 363.234 1076.35 362.312L1080.96 340.543H1031.53L1036.15 362.312ZM1076.17 344.422C1077.85 344.422 1077.85 347.035 1076.17 347.035C1074.48 347.035 1074.48 344.422 1076.17 344.422ZM1071.08 356.914C1071.7 354.739 1072.33 352.565 1072.95 350.39C1073.42 348.774 1075.93 349.465 1075.47 351.084C1074.85 353.259 1074.22 355.434 1073.6 357.608C1073.14 359.224 1070.62 358.533 1071.08 356.914ZM1041.7 355.721L1042.49 355C1042.66 354.848 1042.86 354.824 1042.98 354.994C1043.01 355.029 1043.57 355.74 1044.11 356.138L1044.74 354.253C1043.86 353.512 1042.78 352.24 1043.23 350.853C1043.62 349.687 1044.77 348.968 1046.37 349.326L1046.49 348.953C1046.53 348.825 1046.67 348.766 1046.79 348.804L1046.99 348.87C1047.1 348.908 1047.18 349.036 1047.13 349.164L1047.01 349.549C1048.03 349.987 1048.66 350.776 1048.9 351.112C1049.01 351.24 1048.92 351.442 1048.84 351.508L1047.85 352.266C1047.71 352.363 1047.58 352.333 1047.51 352.232C1047.44 352.17 1046.96 351.536 1046.49 351.134L1045.95 352.778C1046.74 353.439 1048.04 354.733 1047.52 356.318C1047.13 357.519 1045.82 358.266 1044.24 357.9L1043.84 359.113C1043.8 359.229 1043.67 359.288 1043.55 359.25L1043.35 359.184C1043.23 359.146 1043.16 359.019 1043.2 358.902L1043.6 357.689C1042.35 357.175 1041.81 356.393 1041.65 356.068C1041.57 355.912 1041.54 355.85 1041.7 355.721Z" fill="#8BA3FF"/>
<path d="M1045.6 355.945C1045.72 355.584 1045.62 355.177 1045.31 354.763L1044.75 356.465C1045.14 356.491 1045.49 356.306 1045.6 355.945Z" fill="#8BA3FF"/>
<path d="M1053.09 334.723H1059.4V331.47V326.137V321.53C1059.4 320.648 1058.69 319.933 1057.81 319.933H1054.69C1053.81 319.933 1053.09 320.648 1053.09 321.53V326.137V331.47V334.723Z" fill="#8BA3FF"/>
<path d="M1080.12 334.727H1032.38C1031.34 334.727 1030.59 336.137 1030.9 337.539L1031.53 340.543H1080.96L1081.6 337.539C1081.9 336.137 1081.15 334.727 1080.12 334.727Z" fill="#3757CF"/>
<path d="M1073.6 357.608C1074.22 355.434 1074.85 353.259 1075.47 351.084C1075.94 349.465 1073.42 348.774 1072.95 350.39C1072.33 352.564 1071.7 354.739 1071.08 356.914C1070.62 358.533 1073.14 359.224 1073.6 357.608Z" fill="#D4DDFF"/>
<path d="M1076.17 347.035C1077.85 347.035 1077.85 344.422 1076.17 344.422C1074.48 344.422 1074.48 347.035 1076.17 347.035Z" fill="#D4DDFF"/>
<path d="M1080.35 452.569L1083.16 449.796" stroke="#8BA3FF" stroke-width="4" stroke-miterlimit="10"/>
<path d="M1088.66 444.382L1140.87 392.953" stroke="#8BA3FF" stroke-width="4" stroke-miterlimit="10" stroke-dasharray="11.71 11.71"/>
<path d="M1143.61 390.247L1146.43 387.474" stroke="#8BA3FF" stroke-width="4" stroke-miterlimit="10"/>
<path d="M1158.89 383.796C1162.37 383.796 1165.2 380.97 1165.2 377.484C1165.2 373.998 1162.37 371.172 1158.89 371.172C1155.4 371.172 1152.58 373.998 1152.58 377.484C1152.58 380.97 1155.4 383.796 1158.89 383.796Z" fill="#8BA3FF"/>
<path d="M1282.66 415.63C1286.14 415.63 1288.97 412.804 1288.97 409.319C1288.97 405.833 1286.14 403.007 1282.66 403.007C1279.17 403.007 1276.35 405.833 1276.35 409.319C1276.35 412.804 1279.17 415.63 1282.66 415.63Z" fill="#8BA3FF"/>
<path d="M1399.11 377.484C1402.6 377.484 1405.43 374.658 1405.43 371.172C1405.43 367.686 1402.6 364.861 1399.11 364.861C1395.63 364.861 1392.8 367.686 1392.8 371.172C1392.8 374.658 1395.63 377.484 1399.11 377.484Z" fill="#8BA3FF"/>
<path d="M981.312 517.027C984.798 517.027 987.623 514.202 987.623 510.716C987.623 507.23 984.798 504.404 981.312 504.404C977.826 504.404 975 507.23 975 510.716C975 514.202 977.826 517.027 981.312 517.027Z" fill="#8BA3FF"/>
<path d="M1345.12 608.093C1348.61 608.093 1351.43 605.267 1351.43 601.781C1351.43 598.295 1348.61 595.469 1345.12 595.469C1341.64 595.469 1338.81 598.295 1338.81 601.781C1338.81 605.267 1341.64 608.093 1345.12 608.093Z" fill="#8BA3FF"/>
<path d="M1142.48 371.172L1090.2 361.647" stroke="#8BA3FF" stroke-width="4" stroke-miterlimit="10" stroke-dasharray="12 12"/>
<path d="M1163.28 363.104L1167.67 336.496" stroke="#8BA3FF" stroke-width="4" stroke-miterlimit="10" stroke-dasharray="12 12"/>
<path d="M1212.29 311.401L1284.47 323.26" stroke="#8BA3FF" stroke-width="4" stroke-miterlimit="10" stroke-dasharray="12 12"/>
<path d="M1134.57 308.766L1083.22 323.561" stroke="#8BA3FF" stroke-width="4" stroke-miterlimit="10" stroke-dasharray="12 12"/>
<path d="M1037.63 377.484L1046.33 441.153" stroke="#8BA3FF" stroke-width="4" stroke-miterlimit="10" stroke-dasharray="12 12"/>
<path d="M1021.95 366.41L983.746 502.072" stroke="#8BA3FF" stroke-width="4" stroke-miterlimit="10" stroke-dasharray="12 12"/>
<path d="M1062.6 512.033L1081.62 611.548" stroke="#8BA3FF" stroke-width="4" stroke-miterlimit="10" stroke-dasharray="12 12"/>
<path d="M987.624 528.093L1053.91 615.911" stroke="#8BA3FF" stroke-width="4" stroke-miterlimit="10" stroke-dasharray="12 12"/>
<path d="M995.162 507.016L1031.17 492.028" stroke="#8BA3FF" stroke-width="4" stroke-miterlimit="10" stroke-dasharray="12 12"/>
<path d="M1306.78 366.41L1294.62 391.201" stroke="#8BA3FF" stroke-width="4" stroke-miterlimit="10" stroke-dasharray="12 12"/>
<path d="M1332.83 366.41L1362.24 436.761" stroke="#8BA3FF" stroke-width="4" stroke-miterlimit="10" stroke-dasharray="12 12"/>
<path d="M1370.28 496.533L1349.12 585.043" stroke="#8BA3FF" stroke-width="4" stroke-miterlimit="10" stroke-dasharray="12 12"/>
<path d="M1294.62 424.467L1345.12 454.162" stroke="#8BA3FF" stroke-width="4" stroke-miterlimit="10" stroke-dasharray="12 12"/>
<path d="M1387.5 427.54L1399.9 383.796" stroke="#8BA3FF" stroke-width="4" stroke-miterlimit="10" stroke-dasharray="12 12"/>
<path d="M1288.97 434.241L1338.81 581.442" stroke="#8BA3FF" stroke-width="4" stroke-miterlimit="10" stroke-dasharray="12 12"/>
<path d="M1357.41 337.291L1389.75 356.116" stroke="#8BA3FF" stroke-width="4" stroke-miterlimit="10" stroke-dasharray="12 12"/>
<path d="M1181.79 371.172L1282.66 348.792" stroke="#8BA3FF" stroke-width="4" stroke-miterlimit="10" stroke-dasharray="12 12"/>
<path d="M1269.59 390.437L1199.73 334.723" stroke="#8BA3FF" stroke-width="4" stroke-miterlimit="10" stroke-dasharray="12 12"/>
<path d="M1092.97 482.044L1116.34 487.549" stroke="#8BA3FF" stroke-width="4" stroke-miterlimit="10" stroke-dasharray="12 12"/>
<path d="M1393.09 495.161L1398.41 601.781" stroke="#8BA3FF" stroke-width="4" stroke-miterlimit="10" stroke-dasharray="12 12"/>
<path d="M1013.16 666.068L981.312 540.788" stroke="#8BA3FF" stroke-width="4" stroke-miterlimit="10" stroke-dasharray="12 12"/>
<rect x="1362.84" y="452.984" width="24.3696" height="23.6966" transform="rotate(-20.8564 1362.84 452.984)" fill="#8BA3FF"/>
<rect x="1040.11" y="346.83" width="13.1727" height="14.49" fill="#8BA3FF"/>
</g>
<g opacity="0.3">
<path d="M264.341 27.4841L178.06 169.404L264.341 240.719V27.4841Z" fill="#8BA3FF"/>
<path d="M178.06 169.404L264.341 160.716V240.718L178.06 169.404Z" fill="#577AFF"/>
<path d="M264.341 27.484L350.623 169.404L264.341 240.718V27.484Z" fill="#D4DDFF"/>
<path d="M350.623 169.404L264.341 160.716V240.718L350.623 169.404Z" fill="#8BA3FF"/>
<path d="M178.06 185.173L264.341 260.23V335.287L178.06 185.173Z" fill="#8BA3FF"/>
<path d="M350.623 185.173L264.341 260.23V335.287L350.623 185.173Z" fill="#577AFF"/>
<path d="M122.126 275.147V300.702H129.221C129.221 300.702 129.221 300.701 129.221 300.7C129.221 299.88 129.892 299.209 130.712 299.209H145.829C146.649 299.209 147.32 299.88 147.32 300.7C147.32 300.701 147.32 300.702 147.32 300.702H175.805V275.147H158.323H122.126ZM139.196 281.933C135.974 281.933 132.752 281.933 129.53 281.933C127.94 281.933 127.942 279.465 129.53 279.465C132.752 279.465 135.974 279.465 139.196 279.465C140.787 279.465 140.784 281.933 139.196 281.933ZM145.366 281.933C143.776 281.933 143.778 279.465 145.366 279.465C146.957 279.465 146.954 281.933 145.366 281.933Z" fill="#577AFF"/>
<path d="M174.108 268.874H160.02C159.083 268.874 158.323 269.633 158.323 270.57V275.147H175.805V270.57C175.805 269.633 175.045 268.874 174.108 268.874Z" fill="#8BA3FF"/>
<path d="M145.829 302.192H130.712C129.893 302.192 129.223 301.522 129.221 300.702H122.126V308.051C122.126 310.328 123.965 312.166 126.241 312.166H171.689C173.966 312.166 175.804 310.327 175.804 308.051V300.702H147.319C147.319 301.522 146.648 302.192 145.829 302.192Z" fill="#8BA3FF"/>
<path d="M130.712 302.192H145.829C146.648 302.192 147.319 301.522 147.32 300.702C147.32 300.702 147.32 300.701 147.32 300.7C147.32 299.88 146.649 299.209 145.829 299.209H130.712C129.892 299.209 129.221 299.88 129.221 300.7C129.221 300.701 129.221 300.702 129.221 300.702C129.223 301.522 129.893 302.192 130.712 302.192Z" fill="#4C6BE2"/>
<path d="M139.196 279.465C135.974 279.465 132.752 279.465 129.53 279.465C127.942 279.465 127.939 281.933 129.53 281.933C132.752 281.933 135.974 281.933 139.196 281.933C140.784 281.933 140.787 279.465 139.196 279.465Z" fill="#D4DDFF"/>
<path d="M145.366 279.465C143.778 279.465 143.776 281.933 145.366 281.933C146.954 281.933 146.957 279.465 145.366 279.465Z" fill="#D4DDFF"/>
<path d="M460.674 120.982C460.673 124.336 457.958 127.05 454.609 127.05H451.568L457.791 134.812C458.749 136.007 460.676 135.329 460.676 133.798V120.982H460.674Z" fill="#8BA3FF"/>
<path d="M432.5 103.904C432.5 104.656 432.89 105.305 433.928 105.928V102.555C433.097 102.659 432.5 103.255 432.5 103.904Z" fill="#8BA3FF"/>
<path d="M436.86 113.141C436.86 112.337 436.393 111.584 435.485 110.962V114.75C436.289 114.542 436.86 113.945 436.86 113.141Z" fill="#8BA3FF"/>
<path d="M428.999 115.995C428.74 115.735 428.636 115.632 428.869 115.268L429.985 113.296C430.218 112.882 430.607 112.7 430.971 112.959C431.048 113.011 432.631 114.075 433.98 114.516L434.006 110.313C431.749 109.405 428.74 107.562 428.74 104.475C428.74 101.881 430.581 99.6752 434.033 99.338V98.5074C434.033 98.2222 434.266 98.0148 434.526 98.0148H434.967C435.227 98.0148 435.46 98.2222 435.46 98.5074V99.3637C437.795 99.5711 439.585 100.739 440.286 101.258C440.597 101.44 440.545 101.907 440.442 102.088L438.937 104.268C438.729 104.553 438.444 104.579 438.237 104.423C438.055 104.346 436.68 103.385 435.46 102.893V106.551C437.484 107.355 440.961 109.094 440.961 112.622C440.961 113.981 440.409 115.257 439.419 116.226H460.676V98.1669C460.676 94.8112 457.961 92.0969 454.612 92.0969H415.089C411.739 92.0969 409.024 94.8118 409.024 98.1669V116.226H429.25C429.151 116.141 429.066 116.063 428.999 115.995ZM422.913 98.5048C420.885 98.5048 418.857 98.5048 416.829 98.5048C415.327 98.5048 415.329 96.1746 416.829 96.1746C418.857 96.1746 420.885 96.1746 422.913 96.1746C424.415 96.1746 424.413 98.5048 422.913 98.5048ZM427.81 98.5048C426.309 98.5048 426.311 96.1746 427.81 96.1746C429.312 96.1746 429.309 98.5048 427.81 98.5048Z" fill="#8BA3FF"/>
<path d="M460.674 120.982C460.674 120.981 460.674 120.981 460.674 120.98V116.227H439.416C438.459 117.164 437.091 117.814 435.407 117.967V120.666C435.407 120.925 435.173 121.133 434.914 121.133H434.473C434.213 121.133 433.979 120.925 433.979 120.666V117.967C431.48 117.786 429.956 116.828 429.25 116.227H409.023V120.98C409.023 124.336 411.738 127.05 415.088 127.05H451.567H454.609C457.958 127.05 460.672 124.336 460.674 120.982ZM444.621 123.81C443.12 123.81 443.122 121.479 444.621 121.479C446.123 121.479 446.121 123.81 444.621 123.81ZM449.518 121.479C451.546 121.479 453.574 121.479 455.602 121.479C457.104 121.479 457.101 123.81 455.602 123.81C453.574 123.81 451.546 123.81 449.518 123.81C448.016 123.81 448.019 121.479 449.518 121.479Z" fill="#8BA3FF"/>
<path d="M422.913 96.1746C420.885 96.1746 418.856 96.1746 416.828 96.1746C415.329 96.1746 415.327 98.5048 416.828 98.5048C418.856 98.5048 420.885 98.5048 422.913 98.5048C424.412 98.5048 424.414 96.1746 422.913 96.1746Z" fill="#D4DDFF"/>
<path d="M427.81 96.1746C426.31 96.1746 426.308 98.5048 427.81 98.5048C429.309 98.5048 429.312 96.1746 427.81 96.1746Z" fill="#D4DDFF"/>
<path d="M455.602 123.81C457.101 123.81 457.104 121.479 455.602 121.479C453.574 121.479 451.546 121.479 449.518 121.479C448.018 121.479 448.016 123.81 449.518 123.81C451.546 123.81 453.574 123.81 455.602 123.81Z" fill="#D4DDFF"/>
<path d="M444.622 121.479C443.123 121.479 443.12 123.81 444.622 123.81C446.121 123.81 446.123 121.479 444.622 121.479Z" fill="#D4DDFF"/>
<path d="M290.165 385.741C290.164 389.095 287.449 391.809 284.1 391.809H281.059L287.282 399.571C288.24 400.766 290.167 400.088 290.167 398.557V385.741H290.165Z" fill="#8BA3FF"/>
<path d="M261.992 368.663C261.992 369.415 262.381 370.064 263.419 370.687V367.314C262.589 367.418 261.992 368.014 261.992 368.663Z" fill="#8BA3FF"/>
<path d="M266.351 377.9C266.351 377.096 265.884 376.343 264.975 375.721V379.509C265.78 379.301 266.351 378.704 266.351 377.9Z" fill="#8BA3FF"/>
<path d="M258.489 380.754C258.23 380.494 258.126 380.391 258.359 380.027L259.475 378.055C259.709 377.64 260.097 377.459 260.461 377.718C260.538 377.77 262.121 378.834 263.471 379.275L263.496 375.072C261.239 374.164 258.23 372.321 258.23 369.234C258.23 366.64 260.071 364.434 263.523 364.097V363.266C263.523 362.981 263.757 362.774 264.016 362.774H264.457C264.717 362.774 264.95 362.981 264.95 363.266V364.123C267.286 364.33 269.076 365.498 269.776 366.017C270.087 366.199 270.035 366.666 269.932 366.847L268.427 369.027C268.219 369.312 267.934 369.338 267.727 369.182C267.545 369.105 266.17 368.144 264.951 367.652V371.31C266.975 372.114 270.452 373.853 270.452 377.381C270.452 378.74 269.899 380.016 268.909 380.985H290.167V362.926C290.167 359.57 287.452 356.856 284.102 356.856H244.581C241.231 356.856 238.516 359.571 238.516 362.926V380.985H258.742C258.641 380.9 258.557 380.822 258.489 380.754ZM252.404 363.264C250.376 363.264 248.347 363.264 246.319 363.264C244.817 363.264 244.819 360.933 246.319 360.933C248.347 360.933 250.376 360.933 252.404 360.933C253.905 360.933 253.903 363.264 252.404 363.264ZM257.301 363.264C255.799 363.264 255.801 360.933 257.301 360.933C258.802 360.933 258.8 363.264 257.301 363.264Z" fill="#8BA3FF"/>
<path d="M290.165 385.741C290.165 385.74 290.165 385.74 290.165 385.739V380.986H268.907C267.95 381.923 266.582 382.573 264.898 382.726V385.425C264.898 385.684 264.665 385.892 264.405 385.892H263.964C263.704 385.892 263.47 385.684 263.47 385.425V382.726C260.972 382.545 259.447 381.587 258.741 380.986H238.515V385.739C238.515 389.095 241.23 391.809 244.579 391.809H281.059H284.1C287.449 391.809 290.164 389.095 290.165 385.741ZM274.113 388.569C272.611 388.569 272.614 386.238 274.113 386.238C275.614 386.238 275.612 388.569 274.113 388.569ZM279.009 386.238C281.037 386.238 283.066 386.238 285.093 386.238C286.595 386.238 286.593 388.569 285.093 388.569C283.066 388.569 281.037 388.569 279.009 388.569C277.507 388.569 277.51 386.238 279.009 386.238Z" fill="#8BA3FF"/>
<path d="M270.45 377.381C270.45 373.852 266.973 372.114 264.949 371.31V367.652C266.169 368.144 267.544 369.105 267.725 369.182C267.933 369.338 268.218 369.312 268.425 369.027L269.93 366.847C270.034 366.666 270.086 366.199 269.775 366.017C269.074 365.498 267.284 364.33 264.948 364.123V363.266C264.948 362.981 264.715 362.774 264.456 362.774H264.014C263.755 362.774 263.521 362.981 263.521 363.266V364.097C260.07 364.434 258.228 366.64 258.228 369.234C258.228 372.322 261.238 374.164 263.495 375.072L263.469 379.275C262.12 378.834 260.537 377.77 260.459 377.718C260.095 377.459 259.707 377.64 259.473 378.055L258.357 380.027C258.124 380.391 258.228 380.494 258.487 380.754C258.555 380.822 258.639 380.9 258.739 380.985C259.445 381.586 260.969 382.544 263.469 382.726V385.424C263.469 385.684 263.703 385.891 263.962 385.891H264.404C264.663 385.891 264.897 385.684 264.897 385.424V382.726C266.58 382.573 267.948 381.922 268.906 380.985C269.898 380.016 270.45 378.74 270.45 377.381ZM263.419 370.687C262.381 370.065 261.992 369.416 261.992 368.664C261.992 368.015 262.588 367.418 263.419 367.314V370.687ZM264.975 375.721C265.884 376.343 266.351 377.096 266.351 377.9C266.351 378.704 265.779 379.301 264.975 379.508V375.721Z" fill="#4C6BE2"/>
<path d="M252.404 360.933C250.376 360.933 248.347 360.933 246.319 360.933C244.82 360.933 244.818 363.264 246.319 363.264C248.347 363.264 250.376 363.264 252.404 363.264C253.903 363.264 253.906 360.933 252.404 360.933Z" fill="#D4DDFF"/>
<path d="M257.301 360.933C255.801 360.933 255.799 363.264 257.301 363.264C258.8 363.264 258.803 360.933 257.301 360.933Z" fill="#D4DDFF"/>
<path d="M285.094 388.569C286.593 388.569 286.595 386.238 285.094 386.238C283.066 386.238 281.037 386.238 279.009 386.238C277.509 386.238 277.507 388.569 279.009 388.569C281.038 388.569 283.066 388.569 285.094 388.569Z" fill="#D4DDFF"/>
<path d="M274.112 386.238C272.613 386.238 272.611 388.569 274.112 388.569C275.612 388.569 275.614 386.238 274.112 386.238Z" fill="#D4DDFF"/>
<path d="M104.408 142.028C100.72 138.814 98.3885 134.079 98.3885 128.803C98.3885 119.101 106.253 111.237 115.954 111.237C120.275 111.237 124.24 112.798 127.296 115.4C127.361 115.454 127.423 115.514 127.486 115.57L131.215 111.23C127.131 107.674 121.79 105.527 115.954 105.527C103.098 105.527 92.6781 115.946 92.6781 128.803C92.6781 135.903 95.8593 142.265 100.878 146.533L104.607 142.194C104.541 142.139 104.473 142.085 104.408 142.028Z" fill="#8BA3FF"/>
<path d="M131.215 111.23L127.486 115.569C131.175 118.782 133.513 123.521 133.513 128.803C133.513 130.652 133.226 132.434 132.695 134.109C133.68 134.376 133.588 136.045 132.418 136.045C132.253 136.045 132.112 136.012 131.989 135.954C131.743 136.505 131.47 137.04 131.17 137.559C131.802 137.651 132.359 138.308 131.922 139.006C129.844 142.318 126.745 144.691 123.003 145.829C122.469 145.991 122.071 145.719 121.891 145.329C120.036 145.996 118.037 146.361 115.954 146.361C111.62 146.361 107.663 144.793 104.606 142.194L100.877 146.533C104.941 149.984 110.204 152.072 115.954 152.072C128.804 152.072 139.223 141.652 139.223 128.802C139.224 121.788 136.122 115.498 131.215 111.23Z" fill="#3757CF"/>
<path d="M113.632 123.199C113.632 123.943 114.016 124.584 115.042 125.199V121.866C114.221 121.969 113.632 122.558 113.632 123.199Z" fill="#8BA3FF"/>
<path d="M110.171 135.146C109.914 134.889 109.812 134.787 110.042 134.428L111.145 132.479C111.375 132.069 111.76 131.89 112.119 132.146C112.144 132.163 112.34 132.293 112.625 132.468L115.118 129.568V129.531C112.887 128.634 109.914 126.814 109.914 123.763C109.914 121.2 111.733 119.02 115.143 118.687V117.866C115.143 117.584 115.374 117.379 115.631 117.379H116.067C116.323 117.379 116.553 117.584 116.553 117.866V118.712C118.861 118.917 120.63 120.071 121.322 120.583C121.629 120.763 121.578 121.224 121.475 121.404L119.988 123.557C119.783 123.839 119.501 123.864 119.296 123.711C119.117 123.634 117.758 122.685 116.553 122.199V125.813C116.942 125.968 117.386 126.159 117.848 126.39L127.294 115.399C124.238 112.797 120.273 111.236 115.953 111.236C106.251 111.236 98.3868 119.1 98.3868 128.802C98.3868 134.078 100.718 138.813 104.407 142.028L110.255 135.223C110.229 135.199 110.194 135.169 110.171 135.146ZM105.681 120.641C104.969 121.612 104.467 122.704 104.315 123.907C104.249 124.433 103.917 124.9 103.327 124.894C102.842 124.889 102.271 124.44 102.339 123.907C102.537 122.351 103.043 120.916 103.975 119.644C104.72 118.628 106.433 119.614 105.681 120.641ZM107.362 118.564C106.088 118.564 106.091 116.588 107.362 116.588C108.635 116.588 108.633 118.564 107.362 118.564Z" fill="#8BA3FF"/>
<path d="M117.849 126.39C119.761 127.345 121.989 129.005 121.989 131.813C121.989 134.453 119.887 136.786 116.504 137.094V139.76C116.504 140.016 116.273 140.222 116.016 140.222H115.58C115.324 140.222 115.093 140.017 115.093 139.76V137.094C112.393 136.898 110.856 135.791 110.256 135.224L104.408 142.028C104.473 142.085 104.54 142.139 104.606 142.194C107.663 144.794 111.62 146.362 115.954 146.362C118.038 146.362 120.037 145.997 121.891 145.33C121.66 144.828 121.794 144.132 122.477 143.924C125.723 142.937 128.412 140.884 130.215 138.009C130.454 137.628 130.823 137.51 131.17 137.56C131.47 137.041 131.743 136.506 131.989 135.955C131.167 135.568 131.31 134.07 132.418 134.07C132.52 134.07 132.61 134.086 132.695 134.11C133.226 132.435 133.514 130.653 133.514 128.804C133.514 123.521 131.175 118.783 127.486 115.57C127.422 115.514 127.361 115.456 127.296 115.4L117.849 126.39Z" fill="#577AFF"/>
<path d="M115.093 133.685L115.118 129.568L112.625 132.468C113.208 132.826 114.198 133.392 115.093 133.685Z" fill="#577AFF"/>
<path d="M116.58 130.172V133.915C117.375 133.71 117.939 133.12 117.939 132.326C117.939 131.532 117.478 130.787 116.58 130.172Z" fill="#577AFF"/>
<path d="M103.975 119.644C103.043 120.916 102.537 122.351 102.34 123.907C102.272 124.44 102.842 124.889 103.328 124.894C103.917 124.9 104.249 124.433 104.316 123.907C104.468 122.703 104.97 121.612 105.681 120.641C106.434 119.614 104.72 118.628 103.975 119.644Z" fill="#D4DDFF"/>
<path d="M107.362 116.588C106.091 116.588 106.088 118.564 107.362 118.564C108.633 118.564 108.635 116.588 107.362 116.588Z" fill="#D4DDFF"/>
<path d="M130.215 138.009C128.412 140.883 125.724 142.936 122.477 143.923C121.794 144.131 121.66 144.827 121.891 145.329C122.07 145.719 122.469 145.991 123.003 145.829C126.744 144.691 129.844 142.318 131.922 139.006C132.359 138.308 131.802 137.651 131.17 137.559C130.824 137.509 130.455 137.627 130.215 138.009Z" fill="#D4DDFF"/>
<path d="M131.989 135.954C132.111 136.012 132.253 136.045 132.418 136.045C133.588 136.045 133.68 134.375 132.695 134.109C132.61 134.086 132.519 134.069 132.418 134.069C131.31 134.07 131.167 135.568 131.989 135.954Z" fill="#D4DDFF"/>
<path d="M445.185 301.153C441.497 297.939 439.165 293.203 439.165 287.927C439.165 278.226 447.029 270.362 456.731 270.362C461.052 270.362 465.017 271.923 468.073 274.524C468.138 274.579 468.199 274.638 468.263 274.694L471.992 270.355C467.908 266.798 462.567 264.651 456.731 264.651C443.875 264.651 433.455 275.071 433.455 287.927C433.455 295.028 436.636 301.39 441.655 305.658L445.384 301.319C445.318 301.264 445.25 301.21 445.185 301.153Z" fill="#8BA3FF"/>
<path d="M471.992 270.355L468.263 274.694C471.951 277.907 474.29 282.645 474.29 287.927C474.29 289.777 474.002 291.559 473.471 293.233C474.457 293.5 474.365 295.17 473.195 295.17C473.03 295.17 472.889 295.136 472.766 295.079C472.52 295.63 472.246 296.165 471.947 296.684C472.578 296.776 473.136 297.433 472.698 298.13C470.621 301.443 467.521 303.816 463.78 304.953C463.246 305.115 462.848 304.843 462.668 304.454C460.813 305.121 458.814 305.486 456.73 305.486C452.397 305.486 448.439 303.918 445.383 301.318L441.654 305.657C445.718 309.109 450.98 311.196 456.73 311.196C469.58 311.196 480 300.777 480 287.927C480.001 280.913 476.898 274.623 471.992 270.355Z" fill="#3757CF"/>
<path d="M454.409 282.324C454.409 283.067 454.793 283.708 455.819 284.323V280.991C454.999 281.093 454.409 281.683 454.409 282.324Z" fill="#8BA3FF"/>
<path d="M450.947 294.271C450.691 294.015 450.589 293.912 450.819 293.553L451.922 291.605C452.152 291.194 452.537 291.015 452.896 291.271C452.921 291.289 453.117 291.418 453.402 291.593L455.894 288.693V288.657C453.664 287.76 450.691 285.939 450.691 282.888C450.691 280.325 452.51 278.145 455.92 277.812V276.991C455.92 276.71 456.151 276.505 456.408 276.505H456.844C457.1 276.505 457.33 276.71 457.33 276.991V277.837C459.638 278.042 461.407 279.196 462.099 279.708C462.406 279.888 462.355 280.349 462.252 280.529L460.765 282.682C460.56 282.964 460.278 282.99 460.073 282.836C459.894 282.759 458.535 281.811 457.33 281.324V284.939C457.719 285.093 458.163 285.284 458.625 285.515L468.071 274.524C465.015 271.923 461.05 270.362 456.73 270.362C447.028 270.362 439.164 278.226 439.164 287.927C439.164 293.203 441.495 297.939 445.184 301.153L451.032 294.349C451.007 294.324 450.971 294.293 450.947 294.271ZM446.458 279.766C445.746 280.736 445.245 281.829 445.093 283.031C445.026 283.558 444.694 284.025 444.105 284.019C443.62 284.014 443.049 283.565 443.117 283.031C443.315 281.475 443.82 280.04 444.752 278.769C445.497 277.752 447.21 278.74 446.458 279.766ZM448.139 277.689C446.865 277.689 446.868 275.713 448.139 275.713C449.413 275.713 449.41 277.689 448.139 277.689Z" fill="#8BA3FF"/>
<path d="M458.626 285.515C460.538 286.47 462.766 288.13 462.766 290.937C462.766 293.578 460.664 295.911 457.28 296.218V298.885C457.28 299.141 457.05 299.346 456.793 299.346H456.357C456.101 299.346 455.87 299.141 455.87 298.885V296.218C453.17 296.022 451.633 294.916 451.033 294.349L445.185 301.153C445.25 301.21 445.317 301.264 445.383 301.319C448.44 303.919 452.397 305.487 456.73 305.487C458.814 305.487 460.813 305.121 462.668 304.455C462.437 303.953 462.571 303.257 463.254 303.048C466.5 302.061 469.189 300.008 470.992 297.134C471.231 296.753 471.6 296.635 471.947 296.685C472.247 296.166 472.52 295.63 472.766 295.08C471.944 294.693 472.087 293.195 473.195 293.195C473.296 293.195 473.387 293.211 473.472 293.234C474.003 291.56 474.29 289.778 474.29 287.928C474.29 282.645 471.952 277.908 468.263 274.695C468.199 274.639 468.138 274.58 468.073 274.525L458.626 285.515Z" fill="#577AFF"/>
<path d="M455.87 292.809L455.896 288.692L453.403 291.593C453.985 291.951 454.975 292.516 455.87 292.809Z" fill="#577AFF"/>
<path d="M457.357 289.297V293.04C458.152 292.835 458.716 292.245 458.716 291.45C458.716 290.656 458.255 289.912 457.357 289.297Z" fill="#577AFF"/>
<path d="M457.331 281.324C458.537 281.811 459.895 282.76 460.074 282.836C460.28 282.99 460.562 282.965 460.767 282.682L462.254 280.529C462.357 280.349 462.408 279.888 462.1 279.708C461.408 279.195 459.639 278.042 457.332 277.837V276.992C457.332 276.71 457.101 276.505 456.845 276.505H456.409C456.153 276.505 455.922 276.71 455.922 276.992V277.812C452.512 278.145 450.692 280.325 450.692 282.888C450.692 285.939 453.666 287.759 455.896 288.657V288.693L455.87 292.81C454.975 292.517 453.985 291.952 453.402 291.593C453.117 291.418 452.922 291.289 452.897 291.271C452.538 291.015 452.153 291.194 451.923 291.605L450.82 293.553C450.589 293.912 450.692 294.015 450.948 294.271C450.971 294.294 451.007 294.324 451.034 294.349C451.634 294.916 453.171 296.023 455.871 296.219V298.885C455.871 299.141 456.102 299.347 456.358 299.347H456.794C457.051 299.347 457.282 299.142 457.282 298.885V296.219C460.665 295.912 462.768 293.579 462.768 290.938C462.768 288.13 460.539 286.471 458.627 285.516C458.166 285.285 457.722 285.094 457.333 284.939V281.324H457.331ZM455.819 284.323C454.794 283.708 454.409 283.067 454.409 282.324C454.409 281.683 454.999 281.093 455.819 280.991V284.323ZM457.357 293.04V289.297C458.255 289.912 458.716 290.656 458.716 291.451C458.716 292.245 458.152 292.835 457.357 293.04Z" fill="#4C6BE2"/>
<path d="M444.752 278.769C443.82 280.04 443.314 281.476 443.116 283.031C443.049 283.565 443.619 284.014 444.104 284.019C444.694 284.025 445.026 283.558 445.092 283.031C445.245 281.828 445.746 280.737 446.458 279.766C447.211 278.74 445.497 277.752 444.752 278.769Z" fill="#D4DDFF"/>
<path d="M448.139 275.713C446.868 275.713 446.865 277.689 448.139 277.689C449.41 277.689 449.413 275.713 448.139 275.713Z" fill="#D4DDFF"/>
<path d="M470.993 297.134C469.189 300.009 466.501 302.062 463.255 303.048C462.571 303.257 462.438 303.953 462.669 304.455C462.848 304.844 463.247 305.116 463.781 304.954C467.522 303.816 470.621 301.443 472.699 298.131C473.137 297.434 472.579 296.776 471.948 296.685C471.601 296.634 471.232 296.752 470.993 297.134Z" fill="#D4DDFF"/>
<path d="M472.766 295.079C472.888 295.136 473.03 295.17 473.195 295.17C474.366 295.17 474.457 293.5 473.472 293.233C473.387 293.21 473.296 293.194 473.195 293.194C472.087 293.195 471.944 294.692 472.766 295.079Z" fill="#D4DDFF"/>
<path d="M366.307 -3.9284C362.619 -7.14254 360.288 -11.8781 360.288 -17.1538C360.288 -26.8555 368.152 -34.7197 377.853 -34.7197C382.174 -34.7197 386.139 -33.1587 389.195 -30.5571C389.26 -30.5024 389.322 -30.4431 389.385 -30.3872L393.114 -34.7263C389.03 -38.2829 383.689 -40.4301 377.853 -40.4301C364.997 -40.4301 354.577 -30.0104 354.577 -17.1538C354.577 -10.0537 357.758 -3.69129 362.777 0.576679L366.506 -3.76242C366.441 -3.81841 366.373 -3.87175 366.307 -3.9284Z" fill="#8BA3FF"/>
<path d="M393.115 -34.7263L389.386 -30.3872C393.074 -27.1744 395.413 -22.4362 395.413 -17.1539C395.413 -15.3044 395.125 -13.5222 394.595 -11.8479C395.58 -11.5812 395.488 -9.91152 394.318 -9.91152C394.153 -9.91152 394.012 -9.94511 393.889 -10.0024C393.643 -9.45179 393.369 -8.91632 393.07 -8.39731C393.701 -8.30576 394.259 -7.64844 393.821 -6.95095C391.744 -3.63866 388.644 -1.26559 384.903 -0.12812C384.369 0.033905 383.971 -0.238121 383.791 -0.627377C381.936 0.0398254 379.937 0.404709 377.853 0.404709C373.52 0.404709 369.562 -1.1635 366.506 -3.76314L362.777 0.575962C366.841 4.02722 372.103 6.1151 377.853 6.1151C390.703 6.1151 401.123 -4.30454 401.123 -17.1545C401.123 -24.1684 398.021 -30.4584 393.115 -34.7263Z" fill="#3757CF"/>
<path d="M379.749 -19.5665C381.661 -18.6115 383.889 -16.9517 383.889 -14.1439C383.889 -11.5035 381.787 -9.17058 378.403 -8.863V-6.19683C378.403 -5.94062 378.173 -5.73512 377.916 -5.73512H377.48C377.224 -5.73512 376.993 -5.93996 376.993 -6.19683V-8.863C374.293 -9.05927 372.756 -10.1658 372.156 -10.7329L366.307 -3.92849C366.373 -3.87184 366.44 -3.81783 366.506 -3.76251C369.562 -1.16287 373.52 0.405346 377.853 0.405346C379.937 0.405346 381.936 0.0398026 383.791 -0.626738C383.56 -1.12862 383.694 -1.82479 384.377 -2.03292C387.623 -3.02022 390.312 -5.0732 392.115 -7.94749C392.354 -8.32884 392.723 -8.44673 393.07 -8.39668C393.37 -8.91568 393.643 -9.45115 393.889 -10.0018C393.067 -10.3884 393.21 -11.8868 394.318 -11.8868C394.419 -11.8868 394.51 -11.8703 394.595 -11.8473C395.125 -13.5215 395.413 -15.3038 395.413 -17.1533C395.413 -22.4362 393.074 -27.1738 389.386 -30.3866C389.322 -30.4426 389.261 -30.5012 389.196 -30.5565L379.749 -19.5665Z" fill="#577AFF"/>
<path d="M392.115 -7.94799C390.311 -5.07304 387.624 -3.02008 384.377 -2.03344C383.694 -1.82531 383.56 -1.12913 383.791 -0.627251C383.97 -0.237997 384.369 0.0340271 384.903 -0.127997C388.644 -1.26546 391.743 -3.63854 393.821 -6.95082C394.259 -7.64832 393.701 -8.30564 393.07 -8.39719C392.723 -8.44725 392.355 -8.32935 392.115 -7.94799Z" fill="#D4DDFF"/>
<path d="M101.85 0.755252C101.462 0.679508 101.106 0.859315 101.009 1.15109C100.898 1.48897 100.978 1.83805 101.352 2.27077L101.85 0.755252Z" fill="#8BA3FF"/>
<path d="M92.1462 12.3117C92.3379 13.2344 92.9471 13.87 93.6262 13.87H130.868C131.547 13.87 132.157 13.2344 132.348 12.3117L136.963 -9.45691H87.5311L92.1462 12.3117ZM132.166 -5.57754C133.849 -5.57754 133.846 -2.96538 132.166 -2.96538C130.482 -2.96538 130.485 -5.57754 132.166 -5.57754ZM127.08 6.91417C127.704 4.73935 128.328 2.56453 128.951 0.38971C129.415 -1.22593 131.934 -0.535015 131.471 1.08391C130.847 3.25873 130.223 5.43356 129.599 7.60837C129.136 9.22401 126.616 8.5331 127.08 6.91417ZM97.6992 5.72138L98.4915 5.00017C98.6575 4.84802 98.859 4.82365 98.9842 4.99424C99.0112 5.02915 99.5657 5.74047 100.106 6.13829L100.739 4.25327C99.8588 3.51231 98.778 2.23982 99.2338 0.852734C99.6171 -0.313054 100.77 -1.03229 102.37 -0.673992L102.493 -1.04678C102.535 -1.17521 102.671 -1.23383 102.787 -1.19563L102.985 -1.13042C103.102 -1.09222 103.176 -0.964442 103.134 -0.836008L103.008 -0.451365C104.027 -0.0133715 104.658 0.775671 104.897 1.11224C105.01 1.24001 104.917 1.44221 104.844 1.50807L103.846 2.26551C103.711 2.36299 103.579 2.33269 103.508 2.23192C103.438 2.17 102.962 1.53574 102.487 1.13397L101.947 2.77793C102.737 3.43854 104.043 4.73277 103.522 6.3181C103.128 7.5188 101.823 8.26569 100.238 7.90015L99.8397 9.1127C99.8015 9.22928 99.6659 9.28789 99.5493 9.24969L99.351 9.18449C99.2345 9.14629 99.16 9.01851 99.1982 8.90193L99.5967 7.68939C98.3453 7.17499 97.8138 6.39319 97.6498 6.06782C97.5721 5.91172 97.5411 5.84981 97.6992 5.72138Z" fill="#8BA3FF"/>
<path d="M101.604 5.94531C101.723 5.58372 101.624 5.17669 101.308 4.76306L100.749 6.46498C101.141 6.49067 101.486 6.30625 101.604 5.94531Z" fill="#8BA3FF"/>
<path d="M129.599 7.6084C130.223 5.43358 130.847 3.25875 131.471 1.08393C131.935 -0.534995 129.416 -1.22591 128.952 0.38973C128.328 2.56455 127.704 4.73937 127.081 6.91419C126.616 8.53312 129.136 9.22403 129.599 7.6084Z" fill="#D4DDFF"/>
<path d="M136.348 102.569L139.163 99.7958" stroke="#8BA3FF" stroke-width="4" stroke-miterlimit="10"/>
<path d="M144.659 94.3818L196.866 42.9535" stroke="#8BA3FF" stroke-width="4" stroke-miterlimit="10" stroke-dasharray="11.71 11.71"/>
<path d="M199.614 40.2472L202.429 37.4736" stroke="#8BA3FF" stroke-width="4" stroke-miterlimit="10"/>
<path d="M214.888 33.7958C218.374 33.7958 221.2 30.97 221.2 27.4841C221.2 23.9982 218.374 21.1724 214.888 21.1724C211.402 21.1724 208.576 23.9982 208.576 27.4841C208.576 30.97 211.402 33.7958 214.888 33.7958Z" fill="#8BA3FF"/>
<path d="M338.659 65.6303C342.144 65.6303 344.97 62.8044 344.97 59.3186C344.97 55.8327 342.144 53.0068 338.659 53.0068C335.173 53.0068 332.347 55.8327 332.347 59.3186C332.347 62.8044 335.173 65.6303 338.659 65.6303Z" fill="#8BA3FF"/>
<path d="M455.114 27.484C458.6 27.484 461.426 24.6582 461.426 21.1723C461.426 17.6864 458.6 14.8606 455.114 14.8606C451.628 14.8606 448.802 17.6864 448.802 21.1723C448.802 24.6582 451.628 27.484 455.114 27.484Z" fill="#8BA3FF"/>
<path d="M37.3117 167.027C40.7976 167.027 43.6234 164.202 43.6234 160.716C43.6234 157.23 40.7976 154.404 37.3117 154.404C33.8258 154.404 31 157.23 31 160.716C31 164.202 33.8258 167.027 37.3117 167.027Z" fill="#8BA3FF"/>
<path d="M87.531 341.599C91.0168 341.599 93.8427 338.773 93.8427 335.287C93.8427 331.802 91.0168 328.976 87.531 328.976C84.0451 328.976 81.2192 331.802 81.2192 335.287C81.2192 338.773 84.0451 341.599 87.531 341.599Z" fill="#8BA3FF"/>
<path d="M401.123 258.093C404.609 258.093 407.435 255.267 407.435 251.781C407.435 248.295 404.609 245.469 401.123 245.469C397.637 245.469 394.811 248.295 394.811 251.781C394.811 255.267 397.637 258.093 401.123 258.093Z" fill="#8BA3FF"/>
<path d="M198.477 21.1723L146.201 11.6471" stroke="#8BA3FF" stroke-width="4" stroke-miterlimit="10" stroke-dasharray="12 12"/>
<path d="M219.28 13.104L223.672 -13.5043" stroke="#8BA3FF" stroke-width="4" stroke-miterlimit="10" stroke-dasharray="12 12"/>
<path d="M93.6349 27.484L102.334 91.1525" stroke="#8BA3FF" stroke-width="4" stroke-miterlimit="10" stroke-dasharray="12 12"/>
<path d="M77.9469 16.4097L39.746 152.072" stroke="#8BA3FF" stroke-width="4" stroke-miterlimit="10" stroke-dasharray="12 12"/>
<path d="M118.597 162.033L137.621 261.548" stroke="#8BA3FF" stroke-width="4" stroke-miterlimit="10" stroke-dasharray="12 12"/>
<path d="M43.624 178.093L109.915 265.911" stroke="#8BA3FF" stroke-width="4" stroke-miterlimit="10" stroke-dasharray="12 12"/>
<path d="M51.1622 157.016L87.1679 142.028" stroke="#8BA3FF" stroke-width="4" stroke-miterlimit="10" stroke-dasharray="12 12"/>
<path d="M362.778 16.4097L350.623 41.2008" stroke="#8BA3FF" stroke-width="4" stroke-miterlimit="10" stroke-dasharray="12 12"/>
<path d="M388.831 16.4097L418.242 86.7613" stroke="#8BA3FF" stroke-width="4" stroke-miterlimit="10" stroke-dasharray="12 12"/>
<path d="M426.281 146.533L405.124 235.043" stroke="#8BA3FF" stroke-width="4" stroke-miterlimit="10" stroke-dasharray="12 12"/>
<path d="M350.623 74.4673L401.123 104.162" stroke="#8BA3FF" stroke-width="4" stroke-miterlimit="10" stroke-dasharray="12 12"/>
<path d="M443.496 77.5404L455.895 33.7964" stroke="#8BA3FF" stroke-width="4" stroke-miterlimit="10" stroke-dasharray="12 12"/>
<path d="M344.97 84.2415L394.811 231.442" stroke="#8BA3FF" stroke-width="4" stroke-miterlimit="10" stroke-dasharray="12 12"/>
<path d="M413.413 -12.7086L445.747 6.11588" stroke="#8BA3FF" stroke-width="4" stroke-miterlimit="10" stroke-dasharray="12 12"/>
<path d="M237.792 21.1722L338.659 -1.20825" stroke="#8BA3FF" stroke-width="4" stroke-miterlimit="10" stroke-dasharray="12 12"/>
<path d="M325.594 40.4375L255.728 -15.2766" stroke="#8BA3FF" stroke-width="4" stroke-miterlimit="10" stroke-dasharray="12 12"/>
<path d="M148.965 132.044L172.339 137.549" stroke="#8BA3FF" stroke-width="4" stroke-miterlimit="10" stroke-dasharray="12 12"/>
<path d="M178.06 327.655L219.857 356.305" stroke="#8BA3FF" stroke-width="4" stroke-miterlimit="10" stroke-dasharray="12 12"/>
<path d="M307.482 363.264L394.811 268.874" stroke="#8BA3FF" stroke-width="4" stroke-miterlimit="10" stroke-dasharray="12 12"/>
<path d="M412.095 264.651L423.511 272.01" stroke="#8BA3FF" stroke-width="4" stroke-miterlimit="10" stroke-dasharray="12 12"/>
<path d="M449.094 145.161L454.409 251.781" stroke="#8BA3FF" stroke-width="4" stroke-miterlimit="10" stroke-dasharray="12 12"/>
<path d="M307.482 385.741L433.455 316.068" stroke="#8BA3FF" stroke-width="4" stroke-miterlimit="10" stroke-dasharray="12 12"/>
<path d="M103.634 328.975L113.513 320.358" stroke="#8BA3FF" stroke-width="4" stroke-miterlimit="10" stroke-dasharray="12 12"/>
<path d="M106.408 350.905L221.2 385.741" stroke="#8BA3FF" stroke-width="4" stroke-miterlimit="10" stroke-dasharray="12 12"/>
<path d="M69.1648 316.068L37.3118 190.788" stroke="#8BA3FF" stroke-width="4" stroke-miterlimit="10" stroke-dasharray="12 12"/>
<rect x="418.842" y="102.984" width="24.3696" height="23.6966" transform="rotate(-20.8564 418.842 102.984)" fill="#8BA3FF"/>
<rect x="96.1101" y="-3.17029" width="13.1727" height="14.49" fill="#8BA3FF"/>
<rect x="247.597" y="367.756" width="24.3696" height="23.6966" transform="rotate(-20.8564 247.597 367.756)" fill="#8BA3FF"/>
</g>
</g>
</svg>
