<svg width="360" height="360" viewBox="0 0 360 360" fill="none" xmlns="http://www.w3.org/2000/svg">
<path d="M284.875 149.606C275.232 125.505 261.826 100.506 245.025 75.303C216.53 32.5607 188.405 4.27094 187.224 3.0899C185.246 1.10962 182.563 0 179.764 0C176.968 0 174.284 1.10962 172.307 3.0899C171.126 4.27368 143.001 32.5607 114.505 75.303C97.7042 100.506 84.2981 125.505 74.6548 149.606C62.4435 180.14 56.25 209.369 56.25 236.486C56.25 304.59 111.66 360 179.764 360C247.871 360 303.28 304.59 303.28 236.483C303.28 209.369 297.087 180.14 284.875 149.606Z" fill="#D5DDFF"/>
<path d="M284.875 149.606C275.232 125.505 261.826 100.506 245.025 75.303C216.53 32.5607 188.405 4.27094 187.224 3.0899C185.246 1.10962 182.563 0 179.764 0V360C247.871 360 303.28 304.59 303.28 236.483C303.28 209.369 297.087 180.14 284.875 149.606Z" fill="#8BA3FF"/>
<path d="M179.736 225.654L130.243 203.413L179.699 264.647L187.135 255.445V222.322L179.736 225.654Z" fill="#8BA3FF"/>
<path d="M179.699 100.552L122.897 194.325H236.501L179.699 100.552Z" fill="#8BA3FF"/>
<path d="M236.501 194.451L179.699 100.552V194.451H236.501Z" fill="#4C6BE2"/>
<path d="M179.699 168.852L179.471 168.753L122.909 194.402H122.958L179.523 220.039L179.748 219.937L187.135 216.618V172.198L179.699 168.852Z" fill="#4C6BE2"/>
<path d="M179.736 225.654L179.699 264.647L229.191 203.376L179.736 225.654Z" fill="#4C6BE2"/>
<path d="M236.387 194.402L179.699 168.852L179.471 168.753L179.523 220.039L179.748 219.937L236.439 194.402H236.387Z" fill="#3452C4"/>
</svg>
