<svg width="100" height="100" viewBox="0 0 100 100" fill="none" xmlns="http://www.w3.org/2000/svg">
<circle cx="50" cy="50" r="50" fill="white"/>
<g clip-path="url(#clip0)">
<path d="M74.6664 49.0672C70.122 43.5305 60.5007 37.0692 50 37.0692C39.4617 37.0692 29.84 43.5744 25.3336 49.0672C24.8887 49.6094 24.8887 50.3904 25.3336 50.9326C29.9858 56.6032 39.6296 62.9307 50 62.9307C60.7389 62.9307 70.3192 56.229 74.6664 50.9327C75.1113 50.3904 75.1113 49.6094 74.6664 49.0672ZM59.9895 49.9999C59.9895 55.5081 55.5082 59.9895 49.9999 59.9895C44.4915 59.9895 40.0103 55.5078 40.0103 49.9999C40.0103 44.4917 44.4916 40.0103 49.9999 40.0103C55.5087 40.0104 59.9895 44.4923 59.9895 49.9999ZM28.457 50.0003C30.1122 48.28 34.1032 44.5674 39.7057 42.1845C36.1898 46.8043 36.1884 53.1917 39.704 57.8131C35.4443 56.0077 31.4872 53.1554 28.457 50.0003ZM60.2943 57.8153C63.8102 53.1954 63.8115 46.8081 60.296 42.1867C64.5555 43.9921 68.5126 46.8445 71.5429 49.9994C69.8877 51.7199 65.8968 55.4324 60.2943 57.8153Z" fill="#4C6BE2"/>
<path d="M45 50.0002C45 52.7572 47.2429 55.0002 50 55.0002C52.7569 55.0002 55 52.7572 55 50.0002C55 47.2431 52.7569 45.0002 50 45.0002C47.2429 45.0002 45 47.2431 45 50.0002ZM52.0588 50.0002C52.0588 51.1355 51.1352 52.059 50 52.059C48.8647 52.059 47.9411 51.1355 47.9411 50.0002C47.9411 48.8649 48.8647 47.9414 50 47.9414C51.1352 47.9414 52.0588 48.8649 52.0588 50.0002Z" fill="#4C6BE2"/>
<path d="M50 31.3725C50.8122 31.3725 51.4706 30.7141 51.4706 29.902V26.4706C51.4706 25.6584 50.8122 25 50 25C49.1879 25 48.5294 25.6584 48.5294 26.4706V29.902C48.5294 30.7141 49.1879 31.3725 50 31.3725Z" fill="#4C6BE2"/>
<path d="M58.7745 33.3396C59.4796 33.7417 60.378 33.4965 60.7805 32.7906L62.7376 29.3593C63.1399 28.6538 62.8943 27.7557 62.1887 27.3533C61.4831 26.9509 60.5852 27.1965 60.1828 27.9022L58.2257 31.3336C57.8233 32.039 58.069 32.9371 58.7745 33.3396Z" fill="#4C6BE2"/>
<path d="M39.2195 32.7908C39.6218 33.4963 40.5199 33.742 41.2255 33.3396C41.9309 32.9373 42.1766 32.0391 41.7743 31.3336L39.8172 27.9023C39.4149 27.1968 38.5166 26.9511 37.8112 27.3534C37.1057 27.7558 36.8601 28.6539 37.2624 29.3594L39.2195 32.7908Z" fill="#4C6BE2"/>
<path d="M50 68.6275C49.1879 68.6275 48.5294 69.2859 48.5294 70.0981V73.5295C48.5294 74.3416 49.1879 75.0001 50 75.0001C50.8122 75.0001 51.4706 74.3416 51.4706 73.5295V70.0981C51.4706 69.2859 50.8122 68.6275 50 68.6275Z" fill="#4C6BE2"/>
<path d="M41.2254 66.661C40.52 66.2588 39.6219 66.5044 39.2195 67.2098L37.2624 70.6412C36.8601 71.3467 37.1057 72.2448 37.8112 72.6472C38.5168 73.0495 39.4149 72.8038 39.8172 72.0984L41.7743 68.667C42.1767 67.9615 41.9309 67.0634 41.2254 66.661Z" fill="#4C6BE2"/>
<path d="M60.7805 67.2093C60.3781 66.5038 59.4798 66.2583 58.7745 66.6604C58.069 67.0628 57.8233 67.9609 58.2257 68.6664L60.1828 72.0978C60.585 72.8033 61.4831 73.049 62.1887 72.6467C62.8942 72.2443 63.1399 71.3462 62.7376 70.6407L60.7805 67.2093Z" fill="#4C6BE2"/>
</g>
<defs>
<clipPath id="clip0">
<rect width="50" height="50" fill="white" transform="translate(25 25)"/>
</clipPath>
</defs>
</svg>
