<svg width="18" height="19" viewBox="0 0 18 19" fill="none" xmlns="http://www.w3.org/2000/svg">
<path d="M3.18836 0.0911437L17.7094 8.98254C17.7894 9.03127 17.8573 9.09874 17.9068 9.17746C18.0866 9.46234 17.9983 9.83594 17.7106 10.0127L3.25694 18.9085C3.02389 19.0516 2.72291 19.0247 2.51907 18.8429L0.0895932 16.6663C0.0095837 16.5945 -0.0202606 16.4826 0.0140297 16.3814C0.254691 15.6761 0.462333 14.8895 0.632512 14.043C0.641403 13.998 0.662357 13.9568 0.692836 13.923C0.786815 13.8206 0.947469 13.8131 1.05097 13.9055L2.80927 15.4799C3.01246 15.6623 3.31281 15.6886 3.54586 15.5455L12.5259 10.0184C12.6059 9.96964 12.6732 9.90279 12.7234 9.82345C12.9018 9.53919 12.8129 9.16496 12.5247 8.98816L3.93257 3.72654C3.87288 3.69031 3.80303 3.67531 3.73382 3.68344C3.56554 3.70343 3.44553 3.85462 3.46648 4.0208C4.04877 7.0302 4.11672 9.66039 3.69064 12.7979L3.68936 12.8079C3.68174 12.8653 3.65381 12.9184 3.60999 12.9572C3.50839 13.0484 3.35091 13.0409 3.25884 12.9403C2.67084 12.3006 2.02188 11.7227 1.3291 11.2216C1.25544 11.1685 1.21543 11.0804 1.22242 10.9911L1.22306 10.9867C1.60659 7.85737 1.16972 4.87046 0.434395 2.16593C0.408995 2.07097 0.442015 1.96913 0.515673 1.90353L2.4505 0.158617C2.65369 -0.0244344 2.95468 -0.0519232 3.18836 0.0911437Z" fill="white"/>
</svg>
