<svg width="1440" height="780" viewBox="0 0 1440 780" fill="none" xmlns="http://www.w3.org/2000/svg">
<rect width="1440" height="780" fill="#4C6BE2"/>
<mask id="mask0" mask-type="alpha" maskUnits="userSpaceOnUse" x="0" y="0" width="1440" height="780">
<rect width="1440" height="780" fill="#4C6BE2"/>
</mask>
<g mask="url(#mask0)">
<g opacity="0.2">
<path d="M994.856 529.805L903.556 679.98L994.856 755.443V529.805Z" fill="#8BA3FF"/>
<path d="M903.555 679.98L994.855 670.787V755.443L903.555 679.98Z" fill="#577AFF"/>
<path d="M994.856 529.805L1086.16 679.98L994.856 755.443V529.805Z" fill="#D4DDFF"/>
<path d="M1086.16 679.98L994.856 670.787V755.443L1086.16 679.98Z" fill="#8BA3FF"/>
<path d="M903.555 696.667L994.855 776.09V855.513L903.555 696.667Z" fill="#8BA3FF"/>
<path d="M1086.16 696.667L994.856 776.09V855.513L1086.16 696.667Z" fill="#577AFF"/>
<path d="M928.459 439.638V466.68H935.967C935.967 466.679 935.967 466.679 935.967 466.678C935.967 465.81 936.678 465.1 937.545 465.1H953.541C954.409 465.1 955.119 465.81 955.119 466.678C955.119 466.679 955.119 466.679 955.119 466.68H985.26V439.638H966.762H928.459ZM946.522 446.819C943.113 446.819 939.703 446.819 936.294 446.819C934.61 446.819 934.613 444.208 936.294 444.208C939.703 444.208 943.113 444.208 946.522 444.208C948.205 444.208 948.202 446.819 946.522 446.819ZM953.051 446.819C951.368 446.819 951.371 444.208 953.051 444.208C954.734 444.208 954.731 446.819 953.051 446.819Z" fill="#577AFF"/>
<path d="M983.465 433H968.557C967.565 433 966.762 433.804 966.762 434.795V439.638H985.26V434.795C985.261 433.804 984.457 433 983.465 433Z" fill="#8BA3FF"/>
<path d="M953.541 468.256H937.545C936.678 468.256 935.969 467.547 935.967 466.68H928.459V474.456C928.459 476.865 930.405 478.81 932.814 478.81H980.905C983.315 478.81 985.26 476.864 985.26 474.456V466.68H955.118C955.117 467.547 954.408 468.256 953.541 468.256Z" fill="#8BA3FF"/>
<path d="M937.545 468.256H953.54C954.407 468.256 955.117 467.547 955.118 466.68C955.118 466.679 955.118 466.679 955.118 466.678C955.118 465.81 954.407 465.1 953.54 465.1H937.544C936.676 465.1 935.966 465.81 935.966 466.678C935.966 466.679 935.966 466.679 935.966 466.68C935.969 467.547 936.678 468.256 937.545 468.256Z" fill="#4C6BE2"/>
<path d="M946.522 444.208C943.113 444.208 939.703 444.208 936.294 444.208C934.613 444.208 934.611 446.819 936.294 446.819C939.703 446.819 943.113 446.819 946.522 446.819C948.203 446.819 948.205 444.208 946.522 444.208Z" fill="#D4DDFF"/>
<path d="M953.051 444.208C951.371 444.208 951.368 446.819 953.051 446.819C954.732 446.819 954.734 444.208 953.051 444.208Z" fill="#D4DDFF"/>
<path d="M1202.61 628.742C1202.61 632.291 1199.73 635.163 1196.19 635.163H1192.97L1199.56 643.376C1200.57 644.641 1202.61 643.924 1202.61 642.304V628.742H1202.61Z" fill="#8BA3FF"/>
<path d="M1172.8 610.671C1172.8 611.467 1173.21 612.153 1174.31 612.812V609.243C1173.43 609.353 1172.8 609.984 1172.8 610.671Z" fill="#8BA3FF"/>
<path d="M1177.41 620.445C1177.41 619.594 1176.92 618.797 1175.95 618.139V622.147C1176.81 621.927 1177.41 621.296 1177.41 620.445Z" fill="#8BA3FF"/>
<path d="M1169.09 623.465C1168.82 623.19 1168.71 623.081 1168.95 622.696L1170.13 620.609C1170.38 620.17 1170.79 619.978 1171.18 620.252C1171.26 620.308 1172.93 621.433 1174.36 621.9L1174.39 617.452C1172 616.491 1168.82 614.542 1168.82 611.275C1168.82 608.53 1170.77 606.196 1174.42 605.839V604.96C1174.42 604.658 1174.66 604.439 1174.94 604.439H1175.41C1175.68 604.439 1175.93 604.658 1175.93 604.96V605.866C1178.4 606.086 1180.29 607.321 1181.03 607.87C1181.36 608.063 1181.31 608.557 1181.2 608.749L1179.61 611.056C1179.39 611.357 1179.09 611.385 1178.87 611.22C1178.67 611.138 1177.22 610.122 1175.93 609.6V613.471C1178.07 614.322 1181.75 616.162 1181.75 619.896C1181.75 621.333 1181.16 622.684 1180.12 623.709H1202.61V604.6C1202.61 601.049 1199.74 598.177 1196.19 598.177H1154.37C1150.83 598.177 1147.95 601.049 1147.95 604.6V623.709H1169.36C1169.25 623.619 1169.16 623.536 1169.09 623.465ZM1162.65 604.957C1160.51 604.957 1158.36 604.957 1156.21 604.957C1154.62 604.957 1154.63 602.491 1156.21 602.491C1158.36 602.491 1160.51 602.491 1162.65 602.491C1164.24 602.491 1164.24 604.957 1162.65 604.957ZM1167.83 604.957C1166.24 604.957 1166.25 602.491 1167.83 602.491C1169.42 602.491 1169.42 604.957 1167.83 604.957Z" fill="#8BA3FF"/>
<path d="M1202.61 628.742C1202.61 628.741 1202.61 628.741 1202.61 628.74V623.71H1180.11C1179.1 624.702 1177.65 625.39 1175.87 625.552V628.407C1175.87 628.682 1175.62 628.902 1175.35 628.902H1174.88C1174.61 628.902 1174.36 628.682 1174.36 628.407V625.552C1171.72 625.36 1170.1 624.346 1169.36 623.71H1147.95V628.74C1147.95 632.291 1150.83 635.163 1154.37 635.163H1192.97H1196.19C1199.73 635.163 1202.61 632.291 1202.61 628.742ZM1185.62 631.734C1184.03 631.734 1184.04 629.268 1185.62 629.268C1187.21 629.268 1187.21 631.734 1185.62 631.734ZM1190.8 629.268C1192.95 629.268 1195.1 629.268 1197.24 629.268C1198.83 629.268 1198.83 631.734 1197.24 631.734C1195.1 631.734 1192.95 631.734 1190.8 631.734C1189.21 631.734 1189.22 629.268 1190.8 629.268Z" fill="#8BA3FF"/>
<path d="M1162.65 602.491C1160.5 602.491 1158.36 602.491 1156.21 602.491C1154.63 602.491 1154.62 604.957 1156.21 604.957C1158.36 604.957 1160.5 604.957 1162.65 604.957C1164.24 604.957 1164.24 602.491 1162.65 602.491Z" fill="#D4DDFF"/>
<path d="M1167.83 602.491C1166.25 602.491 1166.24 604.957 1167.83 604.957C1169.42 604.957 1169.42 602.491 1167.83 602.491Z" fill="#D4DDFF"/>
<path d="M1197.24 631.734C1198.83 631.734 1198.83 629.268 1197.24 629.268C1195.1 629.268 1192.95 629.268 1190.8 629.268C1189.22 629.268 1189.21 631.734 1190.8 631.734C1192.95 631.734 1195.1 631.734 1197.24 631.734Z" fill="#D4DDFF"/>
<path d="M1185.62 629.268C1184.04 629.268 1184.03 631.734 1185.62 631.734C1187.21 631.734 1187.21 629.268 1185.62 629.268Z" fill="#D4DDFF"/>
<path d="M825.62 651.012C821.717 647.611 819.25 642.6 819.25 637.018C819.25 626.752 827.571 618.43 837.838 618.43C842.41 618.43 846.605 620.082 849.839 622.835C849.908 622.893 849.973 622.955 850.04 623.015L853.986 618.423C849.665 614.66 844.012 612.387 837.838 612.387C824.233 612.387 813.207 623.413 813.207 637.018C813.207 644.531 816.574 651.263 821.884 655.779L825.83 651.188C825.76 651.129 825.688 651.072 825.62 651.012Z" fill="#8BA3FF"/>
<path d="M853.986 618.423L850.04 623.014C853.943 626.414 856.418 631.428 856.418 637.018C856.418 638.975 856.114 640.861 855.552 642.632C856.594 642.914 856.497 644.681 855.259 644.681C855.085 644.681 854.935 644.646 854.805 644.585C854.545 645.168 854.255 645.734 853.938 646.283C854.607 646.38 855.196 647.076 854.734 647.814C852.535 651.319 849.256 653.83 845.296 655.034C844.732 655.205 844.31 654.917 844.12 654.505C842.157 655.211 840.042 655.597 837.837 655.597C833.252 655.597 829.064 653.938 825.829 651.187L821.884 655.779C826.184 659.431 831.752 661.64 837.837 661.64C851.434 661.64 862.46 650.614 862.46 637.017C862.461 629.595 859.178 622.939 853.986 618.423Z" fill="#3757CF"/>
<path d="M835.38 631.088C835.38 631.875 835.787 632.553 836.872 633.204V629.677C836.004 629.786 835.38 630.41 835.38 631.088Z" fill="#8BA3FF"/>
<path d="M831.717 643.729C831.446 643.458 831.338 643.349 831.581 642.97L832.748 640.908C832.992 640.474 833.399 640.284 833.779 640.555C833.805 640.573 834.013 640.711 834.314 640.896L836.952 637.827V637.788C834.592 636.839 831.446 634.913 831.446 631.685C831.446 628.972 833.371 626.666 836.979 626.313V625.445C836.979 625.147 837.223 624.93 837.495 624.93H837.956C838.228 624.93 838.472 625.147 838.472 625.445V626.34C840.913 626.556 842.785 627.777 843.517 628.32C843.843 628.51 843.789 628.998 843.68 629.188L842.106 631.466C841.889 631.765 841.591 631.792 841.374 631.63C841.184 631.548 839.746 630.544 838.471 630.029V633.854C838.883 634.018 839.352 634.22 839.841 634.464L849.837 622.834C846.603 620.081 842.408 618.429 837.836 618.429C827.57 618.429 819.248 626.751 819.248 637.017C819.248 642.599 821.715 647.611 825.618 651.012L831.807 643.811C831.779 643.786 831.742 643.754 831.717 643.729ZM826.966 628.381C826.213 629.408 825.683 630.564 825.522 631.837C825.451 632.394 825.1 632.888 824.476 632.882C823.962 632.876 823.359 632.401 823.431 631.837C823.64 630.19 824.175 628.672 825.161 627.326C825.949 626.25 827.763 627.294 826.966 628.381ZM828.746 626.184C827.398 626.184 827.401 624.093 828.746 624.093C830.093 624.093 830.091 626.184 828.746 626.184Z" fill="#8BA3FF"/>
<path d="M839.843 634.465C841.866 635.475 844.224 637.232 844.224 640.203C844.224 642.997 841.999 645.465 838.419 645.791V648.612C838.419 648.883 838.175 649.101 837.903 649.101H837.442C837.17 649.101 836.926 648.884 836.926 648.612V645.791C834.069 645.583 832.442 644.412 831.807 643.812L825.619 651.012C825.688 651.072 825.759 651.129 825.829 651.188C829.064 653.939 833.252 655.598 837.837 655.598C840.042 655.598 842.157 655.211 844.12 654.506C843.875 653.975 844.017 653.238 844.74 653.018C848.175 651.973 851.02 649.801 852.928 646.76C853.181 646.356 853.571 646.231 853.938 646.284C854.255 645.735 854.545 645.168 854.805 644.586C853.935 644.177 854.087 642.591 855.259 642.591C855.366 642.591 855.462 642.609 855.552 642.633C856.114 640.861 856.418 638.975 856.418 637.018C856.418 631.428 853.943 626.415 850.04 623.015C849.973 622.956 849.908 622.894 849.839 622.835L839.843 634.465Z" fill="#577AFF"/>
<path d="M836.926 642.183L836.953 637.827L834.315 640.896C834.932 641.275 835.979 641.873 836.926 642.183Z" fill="#577AFF"/>
<path d="M838.5 638.467V642.427C839.341 642.211 839.937 641.586 839.937 640.746C839.937 639.905 839.45 639.118 838.5 638.467Z" fill="#577AFF"/>
<path d="M825.162 627.326C824.175 628.672 823.64 630.191 823.431 631.837C823.359 632.401 823.963 632.876 824.476 632.882C825.1 632.888 825.451 632.394 825.522 631.837C825.684 630.563 826.214 629.408 826.967 628.381C827.763 627.294 825.95 626.25 825.162 627.326Z" fill="#D4DDFF"/>
<path d="M828.746 624.093C827.401 624.093 827.398 626.183 828.746 626.183C830.091 626.183 830.093 624.093 828.746 624.093Z" fill="#D4DDFF"/>
<path d="M852.928 646.759C851.019 649.801 848.175 651.973 844.74 653.017C844.017 653.238 843.875 653.974 844.12 654.505C844.309 654.917 844.732 655.205 845.296 655.034C849.255 653.83 852.535 651.319 854.734 647.814C855.196 647.076 854.607 646.38 853.938 646.283C853.572 646.231 853.181 646.355 852.928 646.759Z" fill="#D4DDFF"/>
<path d="M854.805 644.585C854.934 644.646 855.085 644.681 855.259 644.681C856.497 644.681 856.594 642.914 855.552 642.632C855.462 642.608 855.366 642.59 855.259 642.59C854.087 642.591 853.935 644.176 854.805 644.585Z" fill="#D4DDFF"/>
<path d="M1102.75 496.566C1098.85 493.165 1096.38 488.154 1096.38 482.571C1096.38 472.305 1104.7 463.983 1114.97 463.983C1119.54 463.983 1123.74 465.635 1126.97 468.388C1127.04 468.446 1127.11 468.509 1127.17 468.568L1131.12 463.976C1126.8 460.213 1121.15 457.941 1114.97 457.941C1101.37 457.941 1090.34 468.967 1090.34 482.571C1090.34 490.084 1093.71 496.817 1099.02 501.333L1102.96 496.741C1102.89 496.682 1102.82 496.626 1102.75 496.566Z" fill="#8BA3FF"/>
<path d="M1131.12 463.976L1127.17 468.568C1131.08 471.968 1133.55 476.981 1133.55 482.571C1133.55 484.528 1133.25 486.414 1132.69 488.186C1133.73 488.468 1133.63 490.235 1132.39 490.235C1132.22 490.235 1132.07 490.199 1131.94 490.138C1131.68 490.721 1131.39 491.288 1131.07 491.837C1131.74 491.934 1132.33 492.629 1131.87 493.367C1129.67 496.872 1126.39 499.383 1122.43 500.587C1121.87 500.759 1121.44 500.471 1121.25 500.059C1119.29 500.765 1117.18 501.151 1114.97 501.151C1110.39 501.151 1106.2 499.492 1102.96 496.741L1099.02 501.332C1103.32 504.984 1108.89 507.193 1114.97 507.193C1128.57 507.193 1139.59 496.168 1139.59 482.57C1139.59 475.149 1136.31 468.493 1131.12 463.976Z" fill="#3757CF"/>
<path d="M1112.51 476.641C1112.51 477.428 1112.92 478.106 1114.01 478.757V475.231C1113.14 475.339 1112.51 475.963 1112.51 476.641Z" fill="#8BA3FF"/>
<path d="M1108.85 489.283C1108.58 489.012 1108.47 488.903 1108.72 488.523L1109.88 486.461C1110.13 486.027 1110.53 485.838 1110.91 486.109C1110.94 486.127 1111.15 486.264 1111.45 486.45L1114.09 483.38V483.342C1111.73 482.393 1108.58 480.466 1108.58 477.238C1108.58 474.526 1110.5 472.219 1114.11 471.867V470.998C1114.11 470.7 1114.36 470.483 1114.63 470.483H1115.09C1115.36 470.483 1115.61 470.7 1115.61 470.998V471.893C1118.05 472.11 1119.92 473.331 1120.65 473.873C1120.98 474.063 1120.92 474.551 1120.81 474.742L1119.24 477.02C1119.02 477.318 1118.72 477.345 1118.51 477.183C1118.32 477.101 1116.88 476.098 1115.6 475.583V479.408C1116.02 479.571 1116.49 479.774 1116.97 480.017L1126.97 468.387C1123.74 465.635 1119.54 463.983 1114.97 463.983C1104.7 463.983 1096.38 472.304 1096.38 482.57C1096.38 488.153 1098.85 493.164 1102.75 496.565L1108.94 489.365C1108.91 489.339 1108.88 489.307 1108.85 489.283ZM1104.1 473.934C1103.35 474.962 1102.82 476.117 1102.66 477.39C1102.58 477.948 1102.23 478.442 1101.61 478.435C1101.1 478.43 1100.49 477.955 1100.56 477.39C1100.77 475.744 1101.31 474.225 1102.29 472.879C1103.08 471.804 1104.9 472.848 1104.1 473.934ZM1105.88 471.737C1104.53 471.737 1104.53 469.646 1105.88 469.646C1107.23 469.646 1107.22 471.737 1105.88 471.737Z" fill="#8BA3FF"/>
<path d="M1116.98 480.018C1119 481.029 1121.36 482.785 1121.36 485.756C1121.36 488.55 1119.13 491.019 1115.55 491.344V494.165C1115.55 494.437 1115.31 494.654 1115.04 494.654H1114.58C1114.3 494.654 1114.06 494.437 1114.06 494.165V491.344C1111.2 491.136 1109.58 489.966 1108.94 489.366L1102.75 496.566C1102.82 496.626 1102.89 496.683 1102.96 496.741C1106.2 499.492 1110.39 501.152 1114.97 501.152C1117.18 501.152 1119.29 500.765 1121.25 500.059C1121.01 499.528 1121.15 498.792 1121.87 498.572C1125.31 497.527 1128.15 495.354 1130.06 492.313C1130.31 491.909 1130.7 491.785 1131.07 491.838C1131.39 491.288 1131.68 490.722 1131.94 490.139C1131.07 489.73 1131.22 488.144 1132.39 488.144C1132.5 488.144 1132.6 488.162 1132.69 488.186C1133.25 486.415 1133.55 484.529 1133.55 482.572C1133.55 476.981 1131.08 471.968 1127.17 468.569C1127.11 468.509 1127.04 468.447 1126.97 468.389L1116.98 480.018Z" fill="#577AFF"/>
<path d="M1114.06 487.736L1114.09 483.38L1111.45 486.449C1112.07 486.829 1113.11 487.427 1114.06 487.736Z" fill="#577AFF"/>
<path d="M1115.63 484.02V487.981C1116.47 487.764 1117.07 487.14 1117.07 486.299C1117.07 485.459 1116.58 484.671 1115.63 484.02Z" fill="#577AFF"/>
<path d="M1115.61 475.583C1116.88 476.098 1118.32 477.102 1118.51 477.183C1118.73 477.346 1119.02 477.319 1119.24 477.02L1120.81 474.742C1120.92 474.551 1120.98 474.063 1120.65 473.873C1119.92 473.33 1118.05 472.11 1115.61 471.893V470.998C1115.61 470.7 1115.36 470.483 1115.09 470.483H1114.63C1114.36 470.483 1114.11 470.7 1114.11 470.998V471.867C1110.51 472.219 1108.58 474.525 1108.58 477.238C1108.58 480.466 1111.73 482.392 1114.09 483.342V483.38L1114.06 487.737C1113.11 487.427 1112.07 486.829 1111.45 486.45C1111.15 486.264 1110.94 486.127 1110.91 486.109C1110.53 485.838 1110.13 486.027 1109.88 486.461L1108.72 488.523C1108.47 488.903 1108.58 489.012 1108.85 489.283C1108.88 489.307 1108.91 489.339 1108.94 489.366C1109.58 489.966 1111.2 491.137 1114.06 491.344V494.165C1114.06 494.437 1114.3 494.654 1114.58 494.654H1115.04C1115.31 494.654 1115.55 494.437 1115.55 494.165V491.344C1119.13 491.019 1121.36 488.55 1121.36 485.756C1121.36 482.784 1119 481.029 1116.98 480.018C1116.49 479.774 1116.02 479.572 1115.61 479.408V475.583H1115.61ZM1114 478.757C1112.92 478.106 1112.51 477.428 1112.51 476.641C1112.51 475.963 1113.14 475.338 1114 475.23V478.757ZM1115.63 487.981V484.02C1116.58 484.671 1117.07 485.458 1117.07 486.299C1117.07 487.14 1116.47 487.763 1115.63 487.981Z" fill="#4C6BE2"/>
<path d="M1102.3 472.879C1101.31 474.224 1100.77 475.744 1100.56 477.389C1100.49 477.954 1101.1 478.429 1101.61 478.435C1102.23 478.441 1102.58 477.947 1102.66 477.389C1102.82 476.116 1103.35 474.961 1104.1 473.934C1104.9 472.848 1103.08 471.804 1102.3 472.879Z" fill="#D4DDFF"/>
<path d="M1105.88 469.646C1104.53 469.646 1104.53 471.737 1105.88 471.737C1107.22 471.737 1107.23 469.646 1105.88 469.646Z" fill="#D4DDFF"/>
<path d="M1130.06 492.312C1128.15 495.355 1125.31 497.527 1121.87 498.571C1121.15 498.791 1121.01 499.528 1121.25 500.059C1121.44 500.471 1121.87 500.759 1122.43 500.587C1126.39 499.384 1129.67 496.873 1131.87 493.368C1132.33 492.63 1131.74 491.934 1131.07 491.837C1130.71 491.784 1130.32 491.909 1130.06 492.312Z" fill="#D4DDFF"/>
<path d="M1131.94 490.139C1132.07 490.199 1132.22 490.235 1132.39 490.235C1133.63 490.235 1133.73 488.467 1132.69 488.186C1132.6 488.161 1132.5 488.144 1132.39 488.144C1131.22 488.144 1131.07 489.729 1131.94 490.139Z" fill="#D4DDFF"/>
<path d="M853.61 481.115V478.12C853.61 476.658 852.423 475.471 850.96 475.471H837.255V481.115H853.61V481.115Z" fill="#8BA3FF"/>
<path d="M830.575 475.471H816.869C815.406 475.471 814.22 476.658 814.22 478.12V481.115H830.575V475.471Z" fill="#8BA3FF"/>
<path d="M830.575 481.115H814.22V484.557H830.575V481.115Z" fill="#577AFF"/>
<path d="M853.609 481.115H837.254V484.557H853.609V481.115Z" fill="#577AFF"/>
<path d="M822.912 501.522C822.502 501.442 822.125 501.632 822.023 501.941C821.905 502.298 821.99 502.668 822.386 503.126L822.912 501.522Z" fill="#8BA3FF"/>
<path d="M812.644 513.751C812.847 514.727 813.492 515.399 814.21 515.399H853.619C854.337 515.399 854.983 514.727 855.185 513.751L860.068 490.716H807.761L812.644 513.751ZM854.992 494.821C856.773 494.821 856.77 497.585 854.992 497.585C853.21 497.585 853.213 494.821 854.992 494.821ZM849.61 508.039C850.27 505.738 850.931 503.436 851.591 501.135C852.081 499.425 854.747 500.157 854.256 501.87C853.596 504.171 852.936 506.472 852.276 508.774C851.786 510.483 849.119 509.752 849.61 508.039ZM818.52 506.777L819.359 506.014C819.534 505.853 819.748 505.827 819.88 506.007C819.909 506.044 820.495 506.797 821.068 507.218L821.737 505.223C820.806 504.439 819.662 503.093 820.144 501.625C820.55 500.391 821.77 499.63 823.463 500.009L823.593 499.615C823.637 499.479 823.781 499.417 823.904 499.458L824.114 499.527C824.237 499.567 824.316 499.702 824.272 499.838L824.138 500.245C825.216 500.709 825.884 501.543 826.137 501.9C826.256 502.035 826.158 502.249 826.081 502.318L825.025 503.12C824.882 503.223 824.742 503.191 824.667 503.084C824.593 503.019 824.09 502.348 823.586 501.923L823.015 503.662C823.851 504.361 825.233 505.731 824.682 507.408C824.265 508.679 822.884 509.469 821.207 509.082L820.785 510.365C820.745 510.489 820.601 510.551 820.478 510.51L820.268 510.441C820.145 510.401 820.066 510.266 820.107 510.142L820.528 508.859C819.204 508.315 818.642 507.488 818.468 507.143C818.386 506.978 818.353 506.913 818.52 506.777Z" fill="#8BA3FF"/>
<path d="M822.652 507.014C822.778 506.631 822.673 506.201 822.339 505.763L821.747 507.564C822.162 507.591 822.527 507.396 822.652 507.014Z" fill="#8BA3FF"/>
<path d="M830.575 484.557H837.255V481.115V475.472V470.596C837.255 469.663 836.499 468.907 835.565 468.907H832.264C831.331 468.907 830.575 469.663 830.575 470.596V475.472V481.115V484.557Z" fill="#8BA3FF"/>
<path d="M859.175 484.561H808.655C807.559 484.561 806.766 486.054 807.089 487.537L807.761 490.716H860.069L860.741 487.537C861.063 486.054 860.271 484.561 859.175 484.561Z" fill="#3757CF"/>
<path d="M852.276 508.774C852.936 506.472 853.596 504.171 854.257 501.87C854.748 500.157 852.082 499.425 851.591 501.135C850.931 503.436 850.271 505.738 849.611 508.039C849.119 509.752 851.785 510.483 852.276 508.774Z" fill="#D4DDFF"/>
<path d="M854.991 497.585C856.77 497.585 856.773 494.821 854.991 494.821C853.213 494.821 853.209 497.585 854.991 497.585Z" fill="#D4DDFF"/>
<path d="M859.418 609.257L862.396 606.323" stroke="#8BA3FF" stroke-width="4" stroke-miterlimit="10"/>
<path d="M868.212 600.594L923.455 546.175" stroke="#8BA3FF" stroke-width="4" stroke-miterlimit="10" stroke-dasharray="11.71 11.71"/>
<path d="M926.363 543.311L929.342 540.376" stroke="#8BA3FF" stroke-width="4" stroke-miterlimit="10"/>
<path d="M942.526 536.484C946.215 536.484 949.205 533.494 949.205 529.805C949.205 526.117 946.215 523.127 942.526 523.127C938.837 523.127 935.847 526.117 935.847 529.805C935.847 533.494 938.837 536.484 942.526 536.484Z" fill="#8BA3FF"/>
<path d="M1073.5 570.17C1077.18 570.17 1080.17 567.18 1080.17 563.492C1080.17 559.803 1077.18 556.813 1073.5 556.813C1069.81 556.813 1066.82 559.803 1066.82 563.492C1066.82 567.18 1069.81 570.17 1073.5 570.17Z" fill="#8BA3FF"/>
<path d="M1196.72 529.805C1200.41 529.805 1203.4 526.815 1203.4 523.126C1203.4 519.438 1200.41 516.448 1196.72 516.448C1193.04 516.448 1190.05 519.438 1190.05 523.126C1190.05 526.815 1193.04 529.805 1196.72 529.805Z" fill="#8BA3FF"/>
<path d="M754.62 677.466C758.309 677.466 761.299 674.475 761.299 670.787C761.299 667.098 758.309 664.108 754.62 664.108C750.932 664.108 747.942 667.098 747.942 670.787C747.942 674.475 750.932 677.466 754.62 677.466Z" fill="#8BA3FF"/>
<path d="M1139.59 773.828C1143.28 773.828 1146.27 770.837 1146.27 767.149C1146.27 763.46 1143.28 760.47 1139.59 760.47C1135.9 760.47 1132.91 763.46 1132.91 767.149C1132.91 770.837 1135.9 773.828 1139.59 773.828Z" fill="#8BA3FF"/>
<path d="M925.161 523.127L869.843 513.047" stroke="#8BA3FF" stroke-width="4" stroke-miterlimit="10" stroke-dasharray="12 12"/>
<path d="M947.173 514.589L951.821 486.433" stroke="#8BA3FF" stroke-width="4" stroke-miterlimit="10" stroke-dasharray="12 12"/>
<path d="M999.037 459.878L1075.41 472.427" stroke="#8BA3FF" stroke-width="4" stroke-miterlimit="10" stroke-dasharray="12 12"/>
<path d="M916.797 457.091L862.46 472.746" stroke="#8BA3FF" stroke-width="4" stroke-miterlimit="10" stroke-dasharray="12 12"/>
<path d="M814.22 529.805L823.425 597.177" stroke="#8BA3FF" stroke-width="4" stroke-miterlimit="10" stroke-dasharray="12 12"/>
<path d="M797.619 518.087L757.196 661.641" stroke="#8BA3FF" stroke-width="4" stroke-miterlimit="10" stroke-dasharray="12 12"/>
<path d="M840.634 672.181L860.765 777.484" stroke="#8BA3FF" stroke-width="4" stroke-miterlimit="10" stroke-dasharray="12 12"/>
<path d="M761.3 689.174L831.446 782.1" stroke="#8BA3FF" stroke-width="4" stroke-miterlimit="10" stroke-dasharray="12 12"/>
<path d="M769.276 666.872L807.376 651.012" stroke="#8BA3FF" stroke-width="4" stroke-miterlimit="10" stroke-dasharray="12 12"/>
<path d="M1099.02 518.087L1086.16 544.32" stroke="#8BA3FF" stroke-width="4" stroke-miterlimit="10" stroke-dasharray="12 12"/>
<path d="M1126.59 518.087L1157.71 592.531" stroke="#8BA3FF" stroke-width="4" stroke-miterlimit="10" stroke-dasharray="12 12"/>
<path d="M1166.21 655.779L1143.83 749.437" stroke="#8BA3FF" stroke-width="4" stroke-miterlimit="10" stroke-dasharray="12 12"/>
<path d="M1086.16 579.521L1139.59 610.943" stroke="#8BA3FF" stroke-width="4" stroke-miterlimit="10" stroke-dasharray="12 12"/>
<path d="M1184.43 582.773L1197.55 536.485" stroke="#8BA3FF" stroke-width="4" stroke-miterlimit="10" stroke-dasharray="12 12"/>
<path d="M1080.17 589.864L1132.91 745.627" stroke="#8BA3FF" stroke-width="4" stroke-miterlimit="10" stroke-dasharray="12 12"/>
<path d="M1152.6 487.275L1186.81 507.194" stroke="#8BA3FF" stroke-width="4" stroke-miterlimit="10" stroke-dasharray="12 12"/>
<path d="M966.762 523.126L1073.5 499.444" stroke="#8BA3FF" stroke-width="4" stroke-miterlimit="10" stroke-dasharray="12 12"/>
<path d="M1059.67 543.512L985.741 484.557" stroke="#8BA3FF" stroke-width="4" stroke-miterlimit="10" stroke-dasharray="12 12"/>
<path d="M872.768 640.447L897.502 646.272" stroke="#8BA3FF" stroke-width="4" stroke-miterlimit="10" stroke-dasharray="12 12"/>
<path d="M1151.2 780.768L1163.28 788.555" stroke="#8BA3FF" stroke-width="4" stroke-miterlimit="10" stroke-dasharray="12 12"/>
<path d="M1190.35 654.327L1195.98 767.149" stroke="#8BA3FF" stroke-width="4" stroke-miterlimit="10" stroke-dasharray="12 12"/>
<path d="M788.326 835.176L754.62 702.609" stroke="#8BA3FF" stroke-width="4" stroke-miterlimit="10" stroke-dasharray="12 12"/>
</g>
</g>
</svg>
