<svg width="100" height="100" viewBox="0 0 100 100" fill="none" xmlns="http://www.w3.org/2000/svg">
<circle cx="50" cy="50" r="50" fill="white"/>
<path d="M79.6535 61.7025L76.7931 58.8653C76.3334 58.4094 75.5914 58.4125 75.1355 58.8721C74.6795 59.3318 74.6827 60.0739 75.1423 60.5298L78.0026 63.3669C78.2311 63.5936 78.5296 63.7068 78.828 63.7068C79.1295 63.7068 79.431 63.5912 79.6601 63.3601C80.1162 62.9005 80.1132 62.1583 79.6535 61.7025Z" fill="#4C6BE2"/>
<path d="M73.8785 55.9624C73.4207 55.5047 72.6788 55.5047 72.2209 55.9624L72.2189 55.9644C71.7611 56.4222 71.7622 57.1634 72.2199 57.6211C72.4484 57.8497 72.7483 57.964 73.0481 57.964C73.3485 57.964 73.6493 57.8493 73.8784 57.6202C74.3361 57.1624 74.3361 56.4203 73.8785 55.9624Z" fill="#4C6BE2"/>
<path d="M63.886 61.3677L75.2564 49.9974C76.9785 48.2752 76.9785 45.473 75.2563 43.7508C74.649 43.1436 73.9074 42.7514 73.1262 42.5725C73.3941 41.9966 73.5359 41.3646 73.5359 40.7106C73.5359 39.5308 73.0764 38.4216 72.2422 37.5875C71.588 36.9331 70.7643 36.5105 69.8703 36.3583C70.3736 34.8248 70.0178 33.0685 68.8006 31.8514C68.1313 31.1822 67.2989 30.7744 66.4302 30.6254C66.5758 30.1837 66.6525 29.7173 66.6525 29.2387C66.6525 28.0588 66.193 26.9496 65.3589 26.1155C64.5246 25.2814 63.4155 24.8219 62.2357 24.8219C61.4865 24.8219 60.7662 25.0077 60.1262 25.3567L60.0131 25.2352C58.5434 23.6557 56.4629 22.75 54.3056 22.75H45.1017C44.4545 22.75 43.9296 23.2749 43.9296 23.9221V25.4591C43.9296 26.0743 44.0337 26.6731 44.2327 27.2362C43.7025 27.016 43.1289 26.9003 42.5376 26.9003C41.3577 26.9003 40.2485 27.3598 39.4143 28.1939C38.1965 29.4118 37.841 31.1693 38.3455 32.7033C37.4761 32.852 36.6426 33.2601 35.9727 33.9298C35.1386 34.7641 34.6791 35.8732 34.6791 37.053C34.6791 37.5306 34.7556 37.9963 34.9006 38.4371C34.0076 38.5898 33.1847 39.0121 32.531 39.6659C31.1861 41.0109 30.8916 43.0148 31.6476 44.6482C30.8471 44.8312 30.1118 45.2343 29.5167 45.8293C27.7947 47.5513 27.7947 50.3535 29.5167 52.0757L31.8551 54.4139L20.3433 65.9255C19.8856 66.3832 19.8856 67.1254 20.3433 67.5832C20.5722 67.812 20.8722 67.9266 21.1721 67.9266C21.4719 67.9266 21.7719 67.8121 22.0008 67.5832L33.6237 55.9604C34.2817 56.3358 35.0284 56.5367 35.8067 56.5367C36.9864 56.5367 38.0956 56.0772 38.9298 55.2429C39.8362 54.3367 40.2648 53.1312 40.2171 51.9415C40.2765 51.944 40.336 51.9457 40.3954 51.9457C41.5262 51.9456 42.6577 51.5151 43.5185 50.6542C44.3527 49.82 44.8122 48.7108 44.8122 47.5311C44.8122 47.4714 44.8102 47.4121 44.8078 47.3528C44.8665 47.3552 44.9253 47.357 44.9841 47.357C46.1151 47.357 47.2463 46.9265 48.1072 46.0655C48.9414 45.2313 49.4009 44.1221 49.4009 42.9423C49.4009 42.8827 49.3989 42.8234 49.3965 42.7641C49.4553 42.7664 49.514 42.7683 49.5728 42.7683C50.7039 42.7683 51.835 42.3378 52.696 41.4768C54.3141 39.8587 54.4115 37.2872 52.9889 35.5539L60.7695 27.7734C61.161 27.3817 61.6813 27.1662 62.235 27.1662C62.7887 27.1662 63.3092 27.3817 63.7007 27.7734C64.0922 28.1649 64.3077 28.6852 64.3077 29.2389C64.3077 29.7925 64.0922 30.313 63.7006 30.7045L62.5534 31.8516L58.3912 36.0139C57.9334 36.4716 57.9334 37.2137 58.3912 37.6716C58.62 37.9004 58.92 38.015 59.2199 38.015C59.5198 38.015 59.8198 37.9005 60.0486 37.6716L64.2109 33.5093C65.0189 32.7012 66.3339 32.7011 67.1421 33.5092C67.9503 34.3175 67.9503 35.6323 67.1421 36.4405L65.9949 37.5878L62.9799 40.6028C62.5221 41.0605 62.5221 41.8027 62.9799 42.2605C63.2087 42.4893 63.5087 42.6039 63.8086 42.6039C64.1085 42.6039 64.4085 42.4894 64.6374 42.2605L67.6524 39.2455C68.0439 38.8539 68.5643 38.6384 69.1179 38.6384C69.6716 38.6384 70.192 38.8539 70.5836 39.2455C70.9751 39.6371 71.1906 40.1574 71.1906 40.7111C71.1906 41.2647 70.9751 41.7852 70.5835 42.1766L69.0088 43.7513L67.5685 45.1916C67.1107 45.6494 67.1107 46.3915 67.5685 46.8494C67.7973 47.0781 68.0973 47.1927 68.3972 47.1927C68.6971 47.1927 68.9971 47.0782 69.226 46.8494L70.6674 45.408C71.4756 44.6011 72.7897 44.6012 73.5975 45.409C74.4058 46.2171 74.4058 47.5321 73.5975 48.3403L62.2271 59.7107C59.3719 62.566 55.5772 64.2189 51.5421 64.3654C51.2455 64.3762 50.9638 64.4991 50.7543 64.7096L40.2505 75.2522C39.7936 75.7108 39.7949 76.4529 40.2536 76.9098C40.4822 77.1377 40.7815 77.2517 41.0808 77.2517C41.3814 77.2517 41.6822 77.1367 41.9111 76.9068L49.6369 69.1525C51.5993 70.4114 53.9072 71.01 56.2539 70.8549L62.3005 76.9016C62.5294 77.1304 62.8294 77.245 63.1293 77.245C63.4293 77.245 63.7292 77.1305 63.958 76.9016C64.4158 76.4439 64.4158 75.7018 63.958 75.2439L57.5291 68.8143C57.2857 68.571 56.9475 68.4467 56.6045 68.4748L56.2329 68.5053C54.5176 68.6459 52.8222 68.2702 51.3419 67.4406L52.0951 66.6846C56.5501 66.4098 60.7211 64.5327 63.886 61.3677ZM37.2723 53.5854C36.8808 53.9771 36.3603 54.1926 35.8068 54.1926C35.2531 54.1926 34.7326 53.9771 34.3412 53.5854L31.1741 50.4184C30.366 49.6103 30.366 48.2954 31.1741 47.4871C31.5656 47.0955 32.0862 46.88 32.6398 46.88C33.1934 46.88 33.7139 47.0955 34.1053 47.4871L37.2724 50.6541C38.0805 51.4622 38.0805 52.7772 37.2723 53.5854ZM41.8613 48.9965C41.053 49.8046 39.7378 49.8046 38.9299 48.9965L35.7628 45.8294L34.1881 44.2546C33.3799 43.4465 33.3799 42.1315 34.1881 41.3234C34.5796 40.9318 35.1001 40.7162 35.6536 40.7162C36.2073 40.7162 36.7278 40.9318 37.1192 41.3234L41.8609 46.0652C41.8609 46.0652 41.8609 46.0652 41.861 46.0652C42.2527 46.4568 42.4682 46.9772 42.4682 47.5308C42.4682 48.0844 42.2527 48.605 41.8613 48.9965ZM46.45 44.4077C45.6417 45.2157 44.3267 45.2158 43.5187 44.4077L37.6296 38.5186C37.2381 38.1271 37.0226 37.6068 37.0226 37.0531C37.0226 36.4995 37.2381 35.9789 37.6297 35.5875C38.0338 35.1835 38.5647 34.9814 39.0953 34.9814C39.6257 34.9814 40.156 35.1832 40.5599 35.5866L43.244 38.2707L46.4497 41.4764H46.4499C46.8413 41.868 47.0568 42.3883 47.0568 42.942C47.057 43.4957 46.8415 44.0162 46.45 44.4077ZM51.0388 39.8188C50.2307 40.627 48.9157 40.627 48.1076 39.8188L42.2186 33.9298C42.218 33.9292 42.2173 33.9286 42.2166 33.9279L41.0713 32.7827C40.2632 31.9744 40.2632 30.6596 41.0713 29.8513C41.4754 29.4471 42.0062 29.2451 42.537 29.2451C43.0677 29.2451 43.5986 29.4471 44.0025 29.8513L51.0386 36.8874C51.4302 37.2789 51.6457 37.7993 51.6457 38.3529C51.6458 38.9068 51.4304 39.4274 51.0388 39.8188ZM51.347 33.8807L48.1276 30.6613C48.4927 30.7393 48.868 30.7806 49.2501 30.7805C49.2586 30.7805 49.2673 30.7805 49.276 30.7805L52.4925 30.7654C53.1397 30.7623 53.6622 30.2351 53.6591 29.5878C53.6561 28.9423 53.1319 28.4212 52.4871 28.4212C52.4853 28.4212 52.4834 28.4212 52.4815 28.4212L49.2649 28.4363C49.26 28.4363 49.2553 28.4363 49.2504 28.4363C48.4579 28.4363 47.7124 28.1287 47.1504 27.5693C46.5849 27.0064 46.2735 26.2571 46.2735 25.459V25.0941H54.3053C55.8141 25.0941 57.269 25.7275 58.2969 26.8321L58.3446 26.8833L51.347 33.8807Z" fill="#4C6BE2"/>
</svg>
