<svg width="100" height="100" viewBox="0 0 100 100" fill="none" xmlns="http://www.w3.org/2000/svg">
<circle cx="50" cy="50" r="50" fill="white"/>
<path d="M65 78.4992C64.835 78.4992 64.67 78.4667 64.515 78.4017C63.92 78.1492 50 72.1342 50 59.8392V49.3917C50 48.8542 50.3425 48.3792 50.85 48.2067L64.6 43.5642C64.86 43.4767 65.1425 43.4767 65.4 43.5642L79.15 48.2067C79.6575 48.3767 80 48.8542 80 49.3917V59.8392C80 72.1342 66.08 78.1492 65.485 78.4017C65.33 78.4667 65.165 78.4992 65 78.4992ZM52.5 50.2917V59.8392C52.5 69.2992 62.6375 74.7342 65 75.8717C67.36 74.7317 77.5 69.2742 77.5 59.8392V50.2917L65 46.0692L52.5 50.2917Z" fill="#4C6BE2"/>
<path d="M63.75 65.9992C63.7275 65.9992 63.7025 65.9992 63.6825 65.9967C63.325 65.9767 62.9975 65.8092 62.775 65.5292L57.775 59.2792C57.345 58.7392 57.43 57.9542 57.97 57.5217C58.5125 57.0967 59.295 57.1817 59.7275 57.7167L63.8525 62.8742L71.615 55.1142C72.1025 54.6267 72.895 54.6267 73.3825 55.1142C73.87 55.6017 73.87 56.3942 73.3825 56.8817L64.6325 65.6317C64.4 65.8667 64.08 65.9992 63.75 65.9992Z" fill="#4C6BE2"/>
<path d="M66.25 38.5H28.75C23.925 38.5 20 34.575 20 29.75C20 24.925 23.925 21 28.75 21H66.25C71.075 21 75 24.925 75 29.75C75 34.575 71.075 38.5 66.25 38.5ZM28.75 23.5C25.3025 23.5 22.5 26.3025 22.5 29.75C22.5 33.1975 25.3025 36 28.75 36H66.25C69.6975 36 72.5 33.1975 72.5 29.75C72.5 26.3025 69.6975 23.5 66.25 23.5H28.75Z" fill="#4C6BE2"/>
<path d="M31.25 33.4995C29.1825 33.4995 27.5 31.817 27.5 29.7495C27.5 27.682 29.1825 25.9995 31.25 25.9995C33.3175 25.9995 35 27.682 35 29.7495C35 31.817 33.3175 33.4995 31.25 33.4995ZM31.25 28.4995C30.5625 28.4995 30 29.062 30 29.7495C30 30.437 30.5625 30.9995 31.25 30.9995C31.9375 30.9995 32.5 30.437 32.5 29.7495C32.5 29.062 31.9375 28.4995 31.25 28.4995Z" fill="#4C6BE2"/>
<path d="M43.7501 33.4995C41.6826 33.4995 40.0001 31.817 40.0001 29.7495C40.0001 27.682 41.6826 25.9995 43.7501 25.9995C45.8176 25.9995 47.5001 27.682 47.5001 29.7495C47.5001 31.817 45.8176 33.4995 43.7501 33.4995ZM43.7501 28.4995C43.0626 28.4995 42.5001 29.062 42.5001 29.7495C42.5001 30.437 43.0626 30.9995 43.7501 30.9995C44.4376 30.9995 45.0001 30.437 45.0001 29.7495C45.0001 29.062 44.4376 28.4995 43.7501 28.4995Z" fill="#4C6BE2"/>
<path d="M43.75 53.5H28.75C23.925 53.5 20 49.575 20 44.75C20 42.415 20.91 40.22 22.565 38.565C24.22 36.91 26.415 36 28.75 36H66.25C68.205 36 70.0475 36.6275 71.57 37.815C72.115 38.24 72.2125 39.025 71.7875 39.57C71.3625 40.1125 70.5775 40.21 70.0325 39.7875C68.9525 38.945 67.645 38.5 66.25 38.5H28.75C27.085 38.5 25.515 39.1525 24.3325 40.3325C23.15 41.5125 22.5 43.085 22.5 44.75C22.5 48.1975 25.3025 51 28.75 51H43.75C44.44 51 45 51.56 45 52.25C45 52.94 44.44 53.5 43.75 53.5Z" fill="#4C6BE2"/>
<path d="M31.25 48.4995C29.1825 48.4995 27.5 46.817 27.5 44.7495C27.5 42.682 29.1825 40.9995 31.25 40.9995C33.3175 40.9995 35 42.682 35 44.7495C35 46.817 33.3175 48.4995 31.25 48.4995ZM31.25 43.4995C30.5625 43.4995 30 44.062 30 44.7495C30 45.437 30.5625 45.9995 31.25 45.9995C31.9375 45.9995 32.5 45.437 32.5 44.7495C32.5 44.062 31.9375 43.4995 31.25 43.4995Z" fill="#4C6BE2"/>
<path d="M43.7501 48.4995C41.6826 48.4995 40.0001 46.817 40.0001 44.7495C40.0001 42.682 41.6826 40.9995 43.7501 40.9995C45.8176 40.9995 47.5001 42.682 47.5001 44.7495C47.5001 46.817 45.8176 48.4995 43.7501 48.4995ZM43.7501 43.4995C43.0626 43.4995 42.5001 44.062 42.5001 44.7495C42.5001 45.437 43.0626 45.9995 43.7501 45.9995C44.4376 45.9995 45.0001 45.437 45.0001 44.7495C45.0001 44.062 44.4376 43.4995 43.7501 43.4995Z" fill="#4C6BE2"/>
<path d="M43.75 68.5H28.75C23.925 68.5 20 64.575 20 59.75C20 57.415 20.91 55.22 22.565 53.565C24.22 51.91 26.415 51 28.75 51H43.75C44.44 51 45 51.56 45 52.25C45 52.94 44.44 53.5 43.75 53.5H28.75C27.085 53.5 25.515 54.1525 24.3325 55.3325C23.15 56.5125 22.5 58.085 22.5 59.75C22.5 63.1975 25.3025 66 28.75 66H43.75C44.44 66 45 66.56 45 67.25C45 67.94 44.44 68.5 43.75 68.5Z" fill="#4C6BE2"/>
<path d="M31.25 63.4995C29.1825 63.4995 27.5 61.817 27.5 59.7495C27.5 57.682 29.1825 55.9995 31.25 55.9995C33.3175 55.9995 35 57.682 35 59.7495C35 61.817 33.3175 63.4995 31.25 63.4995ZM31.25 58.4995C30.5625 58.4995 30 59.062 30 59.7495C30 60.437 30.5625 60.9995 31.25 60.9995C31.9375 60.9995 32.5 60.437 32.5 59.7495C32.5 59.062 31.9375 58.4995 31.25 58.4995Z" fill="#4C6BE2"/>
<path d="M43.7501 63.4995C41.6826 63.4995 40.0001 61.817 40.0001 59.7495C40.0001 57.682 41.6826 55.9995 43.7501 55.9995C45.8176 55.9995 47.5001 57.682 47.5001 59.7495C47.5001 61.817 45.8176 63.4995 43.7501 63.4995ZM43.7501 58.4995C43.0626 58.4995 42.5001 59.062 42.5001 59.7495C42.5001 60.437 43.0626 60.9995 43.7501 60.9995C44.4376 60.9995 45.0001 60.437 45.0001 59.7495C45.0001 59.062 44.4376 58.4995 43.7501 58.4995Z" fill="#4C6BE2"/>
</svg>
