<svg width="100" height="100" viewBox="0 0 100 100" fill="none" xmlns="http://www.w3.org/2000/svg">
<circle cx="50" cy="50" r="50" fill="white"/>
<path d="M76.0001 32C73.794 32 72.0001 33.794 72.0001 36C72.0001 38.2059 73.7941 39.9999 76.0001 39.9999C78.206 39.9999 80 38.206 80 36C80 33.794 78.206 32 76.0001 32ZM76.0001 38C74.8971 38 74 37.1031 74 36C74 34.897 74.897 33.9999 76.0001 33.9999C77.1032 33.9999 78.0001 34.8969 78.0001 36C78 37.1031 77.1031 38 76.0001 38Z" fill="#4C6BE2"/>
<path d="M24 65C21.794 65 20 66.794 20 69C20 71.2059 21.794 72.9999 24 72.9999C26.206 72.9999 27.9999 71.2059 27.9999 69C27.9999 66.794 26.206 65 24 65ZM24 71C22.897 71 21.9999 70.103 21.9999 69C21.9999 67.8969 22.8969 66.9999 24 66.9999C25.1029 66.9999 26 67.8969 26 69C26 70.103 25.103 71 24 71Z" fill="#4C6BE2"/>
<path d="M74.061 33.264L65.4341 29.099C64.936 28.858 64.3391 29.068 64.0991 29.5651C63.8591 30.0621 64.068 30.6601 64.5651 30.9001L73.1921 35.065C73.3321 35.133 73.4801 35.165 73.626 35.165C73.998 35.165 74.3551 34.957 74.527 34.599C74.767 34.102 74.558 33.504 74.061 33.264Z" fill="#4C6BE2"/>
<path d="M65 72C62.7939 72 61 73.794 61 76C61 78.2059 62.7939 80.0001 65 80.0001C67.206 80.0001 68.9999 78.206 68.9999 76.0001C68.9999 73.7941 67.206 72 65 72ZM65 78C63.897 78 62.9999 77.1031 62.9999 76C62.9999 74.8969 63.897 74 65 74C66.1029 74 67 74.897 67 76.0001C67 77.1032 66.1029 78 65 78Z" fill="#4C6BE2"/>
<path d="M63.0611 73.2641L54.4341 69.0992C53.936 68.8581 53.3391 69.0672 53.0991 69.5652C52.8591 70.0622 53.068 70.6602 53.5651 70.9002L62.1921 75.0652C62.3321 75.1332 62.4802 75.1652 62.6261 75.1652C62.998 75.1652 63.3551 74.9572 63.5271 74.5991C63.767 74.102 63.558 73.5041 63.0611 73.2641Z" fill="#4C6BE2"/>
<path d="M50 47C47.7939 47 46 48.794 46 51C46 53.206 47.794 54.9999 50 54.9999C52.206 54.9999 53.9999 53.2059 53.9999 51C53.9999 48.794 52.206 47 50 47ZM50 53C48.897 53 47.9999 52.103 47.9999 51C47.9999 49.897 48.8969 48.9999 50 48.9999C51.1029 48.9999 52 49.8969 52 51C52 52.103 51.1029 53 50 53Z" fill="#4C6BE2"/>
<path d="M48.242 48.3764L41.615 43.2114C41.179 42.8743 40.5511 42.9493 40.211 43.3854C39.872 43.8214 39.949 44.4493 40.385 44.7894L47.012 49.9544C47.195 50.0965 47.411 50.1655 47.626 50.1655C47.924 50.1655 48.2181 50.0335 48.416 49.7805C48.755 49.3444 48.678 48.7164 48.242 48.3764Z" fill="#4C6BE2"/>
<path d="M67.9999 46C61.9349 46 56.9999 50.935 56.9999 57C56.9999 63.0651 61.9349 68.0001 67.9999 68.0001C74.065 68.0001 79 63.0651 79 57C79 50.935 74.065 46 67.9999 46ZM67.9999 65.9999C63.0369 65.9999 58.9999 61.9629 58.9999 56.9999C58.9999 52.0369 63.0369 47.9999 67.9999 47.9999C72.9629 47.9999 76.9999 52.0369 76.9999 56.9999C76.9999 61.9629 72.9629 65.9999 67.9999 65.9999Z" fill="#4C6BE2"/>
<path d="M44 58C37.935 58 33 62.935 33 69C33 75.0651 37.935 80 44 80C50.0651 80 55.0001 75.065 55.0001 68.9999C55.0001 62.9349 50.0651 58 44 58ZM44 77.9999C39.037 77.9999 35 73.9629 35 68.9999C35 64.0369 39.037 59.9999 44 59.9999C48.963 59.9999 53 64.0369 53 68.9999C53 73.9629 48.963 77.9999 44 77.9999Z" fill="#4C6BE2"/>
<path d="M31 33C24.935 33 20 37.935 20 44C20 50.0651 24.935 55.0001 31 55.0001C37.0651 55.0001 42.0001 50.0651 42.0001 44C42 37.935 37.065 33 31 33ZM31 53C26.037 53 22 48.963 22 44C22 39.037 26.037 35 31 35C35.963 35 40 39.037 40 44C40 48.963 35.963 53 31 53Z" fill="#4C6BE2"/>
<path d="M55 20C48.935 20 44 24.935 44 31C44 37.0651 48.935 42.0001 55 42.0001C61.0651 42.0001 66.0001 37.0651 66.0001 31C65.9999 24.935 61.0649 20 55 20ZM55 40C50.037 40 46 35.963 46 31C46 26.037 50.037 22 55 22C59.963 22 64 26.037 64 31C64 35.963 59.963 40 55 40Z" fill="#4C6BE2"/>
<path d="M45.761 30.3489C45.402 29.9309 44.771 29.8809 44.351 30.24L37.421 36.17C37.001 36.5289 36.952 37.16 37.3109 37.58C37.509 37.811 37.7889 37.93 38.0709 37.93C38.3009 37.93 38.5319 37.8511 38.7209 37.689L45.6509 31.7589C46.071 31.4 46.12 30.7689 45.761 30.3489Z" fill="#4C6BE2"/>
<path d="M67.8 46.4008L61.8 38.4008C61.4689 37.9578 60.842 37.8708 60.4 38.2008C59.9579 38.5318 59.869 39.1588 60.1999 39.5998L66.1999 47.5998C66.3969 47.8618 66.6969 47.9997 67.0009 47.9997C67.2089 47.9997 67.42 47.9347 67.5999 47.7997C68.042 47.4688 68.131 46.8418 67.8 46.4008Z" fill="#4C6BE2"/>
<path d="M59.593 60.3072C59.2619 59.8652 58.635 59.7762 58.193 60.1071L52.607 64.2961C52.165 64.6272 52.076 65.2541 52.4069 65.6951C52.6039 65.9572 52.9039 66.0951 53.2079 66.0951C53.4169 66.0951 53.6269 66.0291 53.807 65.895L59.393 61.7061C59.835 61.3752 59.9241 60.7482 59.593 60.3072Z" fill="#4C6BE2"/>
<path d="M34 68H27C26.448 68 26 68.447 26 69C26 69.553 26.448 69.9999 27 69.9999H33.9999C34.5519 69.9999 34.9999 69.553 34.9999 69C34.9999 68.447 34.552 68 34 68Z" fill="#4C6BE2"/>
<path d="M31 20C28.7939 20 26.9999 21.794 26.9999 24C26.9999 26.206 28.7939 27.9999 30.9998 27.9999C33.2059 27.9999 34.9998 26.2059 34.9998 24C34.9999 21.794 33.2059 20 31 20ZM31 26C29.897 26 28.9999 25.103 28.9999 24C28.9999 22.897 29.8969 21.9999 31 21.9999C32.1029 21.9999 33 22.8969 33 24C32.9999 25.103 32.1029 26 31 26Z" fill="#4C6BE2"/>
<path d="M31.0001 26C30.4481 26 30.0001 26.447 30.0001 27V33.9999C30.0001 34.5529 30.4481 34.9999 31.0001 34.9999C31.552 34.9999 32 34.5529 32 33.9999V27C32 26.447 31.552 26 31.0001 26Z" fill="#4C6BE2"/>
</svg>
