<svg width="24" height="24" viewBox="0 0 24 24" fill="none" xmlns="http://www.w3.org/2000/svg">
<path d="M0.337493 2.00214C-0.112498 1.55215 -0.112498 0.803217 0.337493 0.337493C0.803217 -0.112498 1.53642 -0.112498 2.00214 0.337493L11.9911 10.3432L21.9968 0.337493C22.4468 -0.112498 23.1957 -0.112498 23.6447 0.337493C24.1104 0.803217 24.1104 1.5532 23.6447 2.00214L13.6557 11.9921L23.6447 21.9979C24.1104 22.4478 24.1104 23.1968 23.6447 23.6625C23.1947 24.1125 22.4457 24.1125 21.9968 23.6625L11.9911 13.6568L2.00214 23.6625C1.53642 24.1125 0.803217 24.1125 0.337493 23.6625C-0.112498 23.1968 -0.112498 22.4468 0.337493 21.9979L10.3264 11.9921L0.337493 2.00214Z" fill="white"/>
</svg>
