<svg width="332" height="360" viewBox="0 0 332 360" fill="none" xmlns="http://www.w3.org/2000/svg">
<g clip-path="url(#clip0)">
<path d="M248.429 61.8875C244.44 51.9176 238.894 41.5761 231.944 31.1505C220.156 13.4694 208.522 1.76675 208.033 1.2782C207.215 0.459015 206.105 0 204.948 0C203.791 0 202.681 0.459015 201.863 1.2782C201.374 1.76789 189.74 13.4694 177.952 31.1505C171.002 41.5761 165.456 51.9176 161.467 61.8875C156.416 74.5184 153.854 86.6096 153.854 97.8271C153.854 126 176.775 148.921 204.948 148.921C233.121 148.921 256.043 126 256.043 97.8259C256.043 86.6096 253.481 74.5184 248.429 61.8875Z" fill="#D5DDFF"/>
<path d="M248.429 61.8875C244.44 51.9176 238.894 41.5761 231.944 31.1505C220.156 13.4694 208.522 1.76675 208.033 1.2782C207.215 0.459015 206.105 0 204.948 0V148.921C233.121 148.921 256.043 126 256.043 97.8259C256.043 86.6096 253.481 74.5184 248.429 61.8875Z" fill="#8BA3FF"/>
<path d="M204.936 93.346L184.462 84.1457L204.921 109.476L207.997 105.67V91.9679L204.936 93.346Z" fill="#8BA3FF"/>
<path d="M204.921 41.5952L181.423 80.3863H228.418L204.921 41.5952Z" fill="#8BA3FF"/>
<path d="M228.418 80.4386L204.921 41.5952V80.4386H228.418Z" fill="#4C6BE2"/>
<path d="M204.921 69.8487L204.826 69.808L181.428 80.4182H181.449L204.848 91.0233L204.941 90.9812L207.997 89.6083V71.2332L204.921 69.8487Z" fill="#4C6BE2"/>
<path d="M204.936 93.346L204.921 109.476L225.394 84.1304L204.936 93.346Z" fill="#4C6BE2"/>
<path d="M228.371 80.4182L204.921 69.8487L204.826 69.808L204.848 91.0233L204.941 90.9812L228.392 80.4182H228.371Z" fill="#3452C4"/>
</g>
<path d="M328.086 216.258L271.755 297.842C260.878 312.41 243.395 321.151 225.136 321.151H58.733L48.6316 218.978L58.733 209.85C73.4956 196.835 83.2078 187.9 102.244 183.432C124.97 178.188 147.568 184.597 162.524 198.194C166.409 201.497 168.74 204.605 173.596 204.605H175.927C220.992 204.605 180.265 204.605 225.136 204.605C235.819 204.605 244.56 213.346 244.56 224.029C244.56 234.713 235.819 243.454 225.136 243.454H185.639C180.2 243.454 175.927 247.727 175.927 253.166C175.927 258.606 180.2 262.878 185.639 262.878H231.547C235.237 262.878 242.23 260.547 245.921 256.663L298.367 191.396C304.97 184.209 316.042 183.044 324.007 188.871C332.747 195.281 334.496 207.712 328.086 216.258Z" fill="#D4DDFF"/>
<path d="M59.7574 354.632L1.48402 238.085C-0.915544 233.286 1.02884 227.453 5.82798 225.053L27.3011 214.316C41.6894 207.137 59.2071 212.979 66.3967 227.348L107.294 309.143C114.498 323.55 108.669 341.036 94.2624 348.239L72.7893 358.976C67.9416 361.383 62.144 359.391 59.7574 354.632Z" fill="#3452C3"/>
<defs>
<clipPath id="clip0">
<rect width="148.921" height="148.921" fill="white" transform="translate(130.585)"/>
</clipPath>
</defs>
</svg>
