<svg width="238" height="24" viewBox="0 0 238 24" fill="none" xmlns="http://www.w3.org/2000/svg">
<path d="M190.624 6.81934C190.624 7.52832 190.368 8.08691 189.855 8.49512C189.347 8.90332 188.638 9.10742 187.729 9.10742C186.891 9.10742 186.149 8.94987 185.505 8.63477V7.08789C186.035 7.32422 186.482 7.49072 186.848 7.5874C187.216 7.68408 187.553 7.73242 187.857 7.73242C188.223 7.73242 188.502 7.6626 188.695 7.52295C188.892 7.3833 188.991 7.17562 188.991 6.8999C188.991 6.74593 188.948 6.60986 188.862 6.4917C188.776 6.36995 188.649 6.25358 188.48 6.14258C188.316 6.03158 187.977 5.85433 187.465 5.61084C186.986 5.38525 186.626 5.16862 186.386 4.96094C186.146 4.75326 185.954 4.51156 185.811 4.23584C185.668 3.96012 185.596 3.63786 185.596 3.26904C185.596 2.57438 185.831 2.02832 186.3 1.63086C186.772 1.2334 187.424 1.03467 188.255 1.03467C188.663 1.03467 189.052 1.08301 189.42 1.17969C189.793 1.27637 190.181 1.41243 190.586 1.58789L190.049 2.88232C189.63 2.71045 189.283 2.59049 189.007 2.52246C188.735 2.45443 188.466 2.42041 188.201 2.42041C187.886 2.42041 187.644 2.49382 187.476 2.64062C187.308 2.78743 187.224 2.979 187.224 3.21533C187.224 3.36214 187.258 3.49105 187.326 3.60205C187.394 3.70947 187.501 3.8151 187.648 3.91895C187.798 4.01921 188.151 4.20182 188.706 4.4668C189.44 4.81771 189.943 5.17041 190.215 5.5249C190.487 5.87581 190.624 6.30729 190.624 6.81934Z" fill="#1A2E7B"/>
<path d="M195.956 9H194.291V2.5332H192.159V1.14746H198.088V2.5332H195.956V9Z" fill="#1A2E7B"/>
<path d="M204.984 9L204.415 7.13086H201.552L200.983 9H199.189L201.96 1.11523H203.996L206.778 9H204.984ZM204.017 5.73438C203.491 4.04069 203.194 3.08284 203.126 2.86084C203.061 2.63883 203.015 2.46338 202.986 2.33447C202.868 2.79281 202.53 3.92611 201.971 5.73438H204.017Z" fill="#1A2E7B"/>
<path d="M214.968 9H213.077L211.02 5.69141L210.317 6.19629V9H208.652V1.14746H210.317V4.74072L210.972 3.81689L213.099 1.14746H214.947L212.207 4.62256L214.968 9Z" fill="#1A2E7B"/>
<path d="M216.836 9V1.14746H218.501V9H216.836Z" fill="#1A2E7B"/>
<path d="M228.324 9H226.208L222.792 3.05957H222.744C222.812 4.10872 222.846 4.8571 222.846 5.30469V9H221.358V1.14746H223.458L226.869 7.02881H226.906C226.853 6.0083 226.826 5.28678 226.826 4.86426V1.14746H228.324V9Z" fill="#1A2E7B"/>
<path d="M234.167 4.59033H237.282V8.66162C236.778 8.82633 236.301 8.94092 235.854 9.00537C235.41 9.07341 234.955 9.10742 234.489 9.10742C233.304 9.10742 232.398 8.76009 231.772 8.06543C231.149 7.36719 230.837 6.36637 230.837 5.06299C230.837 3.79541 231.199 2.80713 231.922 2.09814C232.649 1.38916 233.655 1.03467 234.941 1.03467C235.746 1.03467 236.523 1.1958 237.272 1.51807L236.718 2.8501C236.146 2.56364 235.549 2.42041 234.93 2.42041C234.21 2.42041 233.634 2.66211 233.2 3.14551C232.767 3.62891 232.551 4.27881 232.551 5.09521C232.551 5.94743 232.724 6.59912 233.072 7.05029C233.422 7.49788 233.931 7.72168 234.597 7.72168C234.944 7.72168 235.297 7.68587 235.655 7.61426V5.97607H234.167V4.59033Z" fill="#1A2E7B"/>
<path fill-rule="evenodd" clip-rule="evenodd" d="M127.681 0.372608L116.556 18.9893C116.377 19.2889 116.411 19.6748 116.641 19.9353L118.824 22.4158C118.906 22.5102 119.033 22.5526 119.152 22.52C122.536 21.5773 126.274 21.0172 130.189 21.5089L130.195 21.5097C130.306 21.5187 130.417 21.4674 130.483 21.3729C131.11 20.4848 131.833 19.6528 132.633 18.8989C132.759 18.7809 132.769 18.579 132.655 18.4487C132.606 18.3926 132.54 18.3567 132.468 18.347L132.455 18.3453C128.53 17.7991 125.239 17.8862 121.473 18.6327C121.265 18.6596 121.076 18.5057 121.051 18.29C121.041 18.2012 121.06 18.1117 121.105 18.0352L127.688 7.01968C127.91 6.65008 128.378 6.53611 128.734 6.76487C128.833 6.82918 128.916 6.91547 128.977 7.01805L135.893 18.531C136.072 18.8297 136.039 19.2148 135.811 19.4753L133.841 21.7295C133.726 21.8622 133.735 22.0682 133.863 22.1887C133.905 22.2277 133.957 22.2546 134.013 22.266C135.072 22.4842 136.057 22.7504 136.939 23.0589C137.066 23.1029 137.206 23.0646 137.296 22.9621L140.019 19.8473C140.247 19.586 140.28 19.2001 140.101 18.9014L128.97 0.37098C128.749 0.00219548 128.282 -0.110963 127.925 0.119425C127.827 0.182924 127.742 0.270032 127.681 0.372608ZM12.2344 16.0803C12.0075 16.4281 11.6573 16.6019 11.1829 16.6019H10.1951C9.72065 16.6019 9.37121 16.4281 9.14436 16.0803L4.75764 8.37748C4.51089 8.02975 4.27368 7.61052 4.04762 7.1198L3.92344 7.14986C3.94414 7.4984 3.95369 8.02 3.95369 8.71546V21.2053C3.95369 21.7984 3.40844 22.0949 2.31713 22.0949H1.63736C0.545254 22.0949 0 21.7984 0 21.2053V1.38063C0 0.787544 0.545254 0.490998 1.63736 0.490998H3.08924C3.97518 0.490998 4.55148 0.736359 4.81894 1.22708L10.1951 10.6491C10.4012 10.996 10.566 11.334 10.6894 11.6614C10.7722 11.3949 10.9369 11.0472 11.1829 10.6174L16.5901 1.22708C16.8575 0.736359 17.4243 0.490998 18.2895 0.490998H19.7104C20.8017 0.490998 21.3477 0.787544 21.3477 1.38063V21.2053C21.3477 21.7984 20.8017 22.0949 19.7104 22.0949H19.0306C17.9393 22.0949 17.3932 21.7984 17.3932 21.2053V8.77639C17.3932 8.08093 17.4036 7.55934 17.4243 7.21161L17.3009 7.18073C17.074 7.67145 16.8376 8.09149 16.5901 8.43922L12.2344 16.0803ZM158.305 22.0949C158.604 22.0949 158.817 21.9872 158.946 21.7717C159.073 21.5562 159.137 21.2224 159.137 20.7712V19.9716C159.137 19.5203 159.073 19.1865 158.946 18.971C158.817 18.7555 158.604 18.6478 158.305 18.6478H150.717V1.38377C150.717 1.07592 150.584 0.849889 150.318 0.706495C150.05 0.563101 149.618 0.490998 149.02 0.490998H148.22C147.089 0.490998 146.523 0.788319 146.523 1.38377V20.9559C146.523 21.3464 146.619 21.6331 146.812 21.8179C147.004 22.0026 147.302 22.0949 147.708 22.0949H158.305ZM179.168 22.0949C179.466 22.0949 179.679 21.9872 179.808 21.7717C179.936 21.5562 180 21.2224 180 20.7712V19.9716C180 19.5203 179.936 19.1865 179.808 18.971C179.679 18.7555 179.466 18.6478 179.168 18.6478H171.58V1.38377C171.58 1.07592 171.447 0.849889 171.179 0.706495C170.913 0.563101 170.481 0.490998 169.883 0.490998H169.082C167.951 0.490998 167.385 0.788319 167.385 1.38377V20.9559C167.385 21.3464 167.482 21.6331 167.674 21.8179C167.866 22.0026 168.165 22.0949 168.57 22.0949H179.168ZM33.8586 22.0949C34.898 22.0949 35.4178 21.7887 35.4178 21.177V1.40888C35.4178 0.79723 34.898 0.490998 33.8586 0.490998H33.1244C32.0652 0.490998 31.5364 0.79723 31.5364 1.40888V21.177C31.5364 21.7887 32.0652 22.0949 33.1244 22.0949H33.8586ZM49.5494 21.2053C49.5494 21.7984 49.005 22.0949 47.9168 22.0949H47.239C46.1509 22.0949 45.6065 21.7984 45.6065 21.2053V1.38063C45.6065 0.787544 46.1509 0.490998 47.239 0.490998H48.3478C48.8002 0.490998 49.1645 0.542183 49.4415 0.644552C49.7193 0.746921 49.9391 0.941097 50.1034 1.22708L57.9901 13.2262C58.4004 13.8193 58.7592 14.4335 59.0679 15.0672L59.1909 15.0363C59.1505 14.5659 59.129 13.8705 59.129 12.95V1.38063C59.129 0.787544 59.6735 0.490998 60.7624 0.490998H61.4394C62.5275 0.490998 63.0728 0.787544 63.0728 1.38063V21.2053C63.0728 21.7984 62.5275 22.0949 61.4394 22.0949H60.4537C60.0227 22.0949 59.679 22.0437 59.4219 21.9414C59.1655 21.839 58.9449 21.6554 58.7592 21.3889L50.6883 9.1753C50.2375 8.54159 49.878 7.93794 49.6105 7.36516L49.4875 7.39603C49.5288 7.86644 49.5494 8.5619 49.5494 9.48241V21.2053ZM85.0552 22.0949C85.3387 22.0949 85.5471 21.992 85.6786 21.7861C85.8102 21.5802 85.876 21.2403 85.876 20.7672V19.9648C85.876 19.4918 85.8102 19.1527 85.6786 18.9468C85.5471 18.7409 85.3387 18.6379 85.0552 18.6379H77.2434V12.7739H84.1741C84.4576 12.7739 84.6652 12.6718 84.7975 12.4659C84.9291 12.26 84.9949 11.9209 84.9949 11.447V10.6454C84.9949 10.1715 84.9291 9.83246 84.7975 9.62656C84.6652 9.42067 84.4576 9.31772 84.1741 9.31772H77.2434V3.94799H85.0254C85.309 3.94799 85.5165 3.84504 85.6481 3.63914C85.7805 3.43324 85.8463 3.09416 85.8463 2.62108V1.81872C85.8463 1.34564 85.7805 1.00575 85.6481 0.799848C85.5165 0.593948 85.309 0.490998 85.0254 0.490998H74.3854C74.0008 0.490998 73.7173 0.579241 73.534 0.754092C73.3523 0.928126 73.2615 1.22145 73.2615 1.63325V20.9527C73.2615 21.3432 73.3523 21.6317 73.534 21.8163C73.7173 22.0018 74.0008 22.0949 74.3854 22.0949H85.0552ZM99.6204 21.2028C99.6204 21.7975 99.0759 22.0949 97.9862 22.0949H97.2145C96.1248 22.0949 95.5795 21.7975 95.5795 21.2028V1.63002C95.5795 1.24057 95.6677 0.952962 95.8418 0.768828C96.0167 0.58388 96.2996 0.490998 96.6907 0.490998H102.428C104.999 0.490998 106.906 0.963554 108.15 1.90703C109.395 2.85052 110.017 4.26655 110.017 6.15352C110.017 7.34387 109.698 8.36964 109.06 9.23164C108.424 10.0928 107.549 10.7389 106.438 11.1699V11.293C106.891 11.4575 107.323 11.8217 107.734 12.3855C108.146 12.9502 108.516 13.6419 108.845 14.4632L111.467 20.9877C111.549 21.2745 111.59 21.4488 111.59 21.5108C111.59 21.9002 111.036 22.0949 109.924 22.0949H108.999C108.094 22.0949 107.56 21.9002 107.395 21.5108L104.989 15.4783C104.618 14.6375 104.182 14.0525 103.678 13.7242C103.174 13.3958 102.408 13.2321 101.379 13.2321H99.6204V21.2028ZM99.4609 9.81997V3.92799H102.615C103.593 3.92799 104.363 4.17228 104.925 4.66005C105.487 5.14864 105.768 5.84026 105.768 6.73326C105.768 7.56436 105.477 8.28652 104.894 8.90056C104.311 9.51295 103.624 9.81997 102.834 9.81997H99.4609Z" fill="#4C6BE2"/>
</svg>
