<svg width="337" height="360" viewBox="0 0 337 360" fill="none" xmlns="http://www.w3.org/2000/svg">
<g clip-path="url(#clip0)">
<path d="M186.387 97.7134C180.089 81.9719 171.333 65.6439 160.36 49.1832C141.748 21.2666 123.379 2.7895 122.607 2.01813C121.316 0.724733 119.563 0 117.735 0C115.909 0 114.156 0.724733 112.865 2.01813C112.093 2.7913 93.7237 21.2666 75.1121 49.1832C64.1388 65.6439 55.3828 81.9719 49.0845 97.7134C41.1088 117.656 37.0636 136.747 37.0636 154.458C37.0636 198.939 73.2536 235.129 117.735 235.129C162.218 235.129 198.408 198.939 198.408 154.456C198.408 136.747 194.363 117.656 186.387 97.7134Z" fill="#3452C3"/>
<path d="M186.387 97.7134C180.089 81.9719 171.333 65.6439 160.36 49.1832C141.748 21.2666 123.379 2.7895 122.607 2.01813C121.316 0.724733 119.563 0 117.735 0V235.129C162.218 235.129 198.408 198.939 198.408 154.456C198.408 136.747 194.363 117.656 186.387 97.7134Z" fill="#3452C3"/>
<path d="M117.717 147.383L85.3914 132.856L117.692 172.85L122.549 166.84V145.207L117.717 147.383Z" fill="#3452C3"/>
<path d="M117.692 65.674L80.593 126.921H154.792L117.692 65.674Z" fill="#3452C3"/>
<path d="M154.792 127.003L117.692 65.674V127.003H154.792Z" fill="#3452C3"/>
<path d="M117.692 110.283L117.543 110.219L80.601 126.971H80.6332L117.578 143.715L117.725 143.649L122.549 141.481V112.469L117.692 110.283Z" fill="#3452C3"/>
<path d="M117.717 147.383L117.692 172.85L150.018 132.832L117.717 147.383Z" fill="#3452C3"/>
<path d="M154.717 126.971L117.692 110.283L117.543 110.219L117.578 143.715L117.725 143.649L154.752 126.971H154.717Z" fill="#3452C4"/>
</g>
<g clip-path="url(#clip1)">
<path d="M234.21 158.82C227.912 143.079 219.156 126.751 208.183 110.29C189.571 82.3736 171.201 63.8965 170.43 63.1252C169.138 61.8318 167.386 61.107 165.558 61.107C163.732 61.107 161.979 61.8318 160.687 63.1252C159.916 63.8983 141.547 82.3736 122.935 110.29C111.962 126.751 103.206 143.079 96.9074 158.82C88.9317 178.763 84.8865 197.854 84.8865 215.565C84.8865 260.046 121.076 296.236 165.558 296.236C210.041 296.236 246.231 260.046 246.231 215.563C246.231 197.854 242.186 178.763 234.21 158.82Z" fill="#4C6BE2"/>
<path d="M234.21 158.82C227.912 143.079 219.156 126.751 208.182 110.29C189.571 82.3736 171.201 63.8965 170.43 63.1252C169.138 61.8318 167.386 61.107 165.558 61.107V296.236C210.041 296.236 246.231 260.046 246.231 215.563C246.231 197.854 242.186 178.763 234.21 158.82Z" fill="#4C6BE2"/>
<path d="M165.539 208.49L133.214 193.964L165.515 233.957L170.372 227.947V206.314L165.539 208.49Z" fill="#4C6BE2"/>
<path d="M165.515 126.781L128.416 188.028H202.615L165.515 126.781Z" fill="#4C6BE2"/>
<path d="M202.615 188.11L165.515 126.781V188.11H202.615Z" fill="#4C6BE2"/>
<path d="M165.515 171.39L165.366 171.326L128.424 188.078H128.456L165.4 204.822L165.547 204.756L170.372 202.588V173.576L165.515 171.39Z" fill="#4C6BE2"/>
<path d="M165.539 208.49L165.515 233.957L197.84 193.939L165.539 208.49Z" fill="#4C6BE2"/>
<path d="M202.54 188.078L165.515 171.39L165.366 171.326L165.401 204.822L165.547 204.756L202.575 188.078H202.54Z" fill="#3452C4"/>
</g>
<g clip-path="url(#clip2)">
<path d="M287.347 222.584C281.048 206.843 272.292 190.515 261.319 174.054C242.707 146.137 224.338 127.66 223.567 126.889C222.275 125.596 220.522 124.871 218.694 124.871C216.868 124.871 215.116 125.596 213.824 126.889C213.053 127.662 194.683 146.137 176.071 174.054C165.098 190.515 156.342 206.843 150.044 222.584C142.068 242.527 138.023 261.618 138.023 279.329C138.023 323.81 174.213 360 218.694 360C263.178 360 299.368 323.81 299.368 279.327C299.368 261.618 295.322 242.527 287.347 222.584Z" fill="#D4DDFF"/>
<path d="M287.347 222.584C281.048 206.843 272.292 190.515 261.319 174.054C242.707 146.137 224.338 127.66 223.567 126.889C222.275 125.596 220.522 124.871 218.694 124.871V360C263.178 360 299.368 323.81 299.368 279.327C299.368 261.618 295.322 242.527 287.347 222.584Z" fill="#8BA3FF"/>
<path d="M218.676 272.254L186.351 257.727L218.652 297.721L223.509 291.711V270.078L218.676 272.254Z" fill="#8BA3FF"/>
<path d="M218.652 190.545L181.552 251.792H255.751L218.652 190.545Z" fill="#8BA3FF"/>
<path d="M255.751 251.874L218.652 190.545V251.874H255.751Z" fill="#4C6BE2"/>
<path d="M218.652 235.154L218.503 235.09L181.56 251.842H181.592L218.537 268.586L218.684 268.52L223.509 266.352V237.34L218.652 235.154Z" fill="#4C6BE2"/>
<path d="M218.676 272.254L218.652 297.721L250.977 257.703L218.676 272.254Z" fill="#4C6BE2"/>
<path d="M255.677 251.842L218.652 235.154L218.503 235.09L218.537 268.586L218.684 268.52L255.711 251.842H255.677Z" fill="#3452C4"/>
</g>
<defs>
<clipPath id="clip0">
<rect width="235.129" height="235.129" fill="white" transform="translate(0.324707)"/>
</clipPath>
<clipPath id="clip1">
<rect width="235.129" height="235.129" fill="white" transform="translate(48.1475 61.107)"/>
</clipPath>
<clipPath id="clip2">
<rect width="235.129" height="235.129" fill="white" transform="translate(101.284 124.871)"/>
</clipPath>
</defs>
</svg>
